<mxfile host="" modified="2020-07-25T21:48:41.769Z" agent="5.0 (Windows NT 10.0; Win64; x64) AppleWebKit/537.36 (KHTML, like Gecko) Code/1.46.0 Chrome/78.0.3904.130 Electron/7.3.1 Safari/537.36" etag="wyAbgritEF9Yd6i-tPw1" version="13.1.3" pages="11">
    <diagram name="Component Labels" id="42789a77-a242-8287-6e28-9cd8cfd52e62">
        <mxGraphModel dx="1076" dy="792" grid="1" gridSize="10" guides="1" tooltips="1" connect="1" arrows="1" fold="1" page="1" pageScale="1" pageWidth="1100" pageHeight="850" background="#ffffff" math="0" shadow="0">
            <root>
                <mxCell id="0"/>
                <mxCell id="1" parent="0"/>
                <mxCell id="1ea317790d2ca983-14" value="" style="edgeStyle=none;rounded=1;html=1;labelBackgroundColor=none;startArrow=none;startFill=0;startSize=5;endArrow=classicThin;endFill=1;endSize=5;jettySize=auto;orthogonalLoop=1;strokeWidth=1;fontFamily=Verdana;fontSize=12;strokeColor=#d6b656;fillColor=#fff2cc;" parent="1" source="1ea317790d2ca983-1" edge="1">
                    <mxGeometry relative="1" as="geometry">
                        <mxPoint x="560" y="221" as="targetPoint"/>
                    </mxGeometry>
                </mxCell>
                <mxCell id="1ea317790d2ca983-1" value="" style="ellipse;whiteSpace=wrap;html=1;rounded=0;shadow=1;comic=0;labelBackgroundColor=none;strokeWidth=1;fontFamily=Verdana;fontSize=12;align=center;" parent="1" vertex="1">
                    <mxGeometry x="450" y="207" width="30" height="30" as="geometry"/>
                </mxCell>
                <mxCell id="XBnS1yBzff7NUHpE4Zis-2" value="" style="edgeStyle=none;rounded=1;html=1;labelBackgroundColor=none;startArrow=none;startFill=0;startSize=5;endArrow=classicThin;endFill=1;endSize=5;jettySize=auto;orthogonalLoop=1;strokeWidth=1;fontFamily=Verdana;fontSize=12;entryX=0;entryY=0.5;entryDx=0;entryDy=0;fillColor=#d5e8d4;strokeColor=#82b366;" parent="1" target="1ea317790d2ca983-1" edge="1">
                    <mxGeometry relative="1" as="geometry">
                        <mxPoint x="360" y="222" as="sourcePoint"/>
                        <mxPoint x="450" y="210" as="targetPoint"/>
                    </mxGeometry>
                </mxCell>
                <mxCell id="XBnS1yBzff7NUHpE4Zis-3" value="1" style="text;html=1;strokeColor=none;fillColor=none;align=center;verticalAlign=middle;whiteSpace=wrap;rounded=0;imageWidth=24;" parent="1" vertex="1">
                    <mxGeometry x="390" y="200" width="20" height="20" as="geometry"/>
                </mxCell>
                <mxCell id="XBnS1yBzff7NUHpE4Zis-4" value="2" style="text;html=1;strokeColor=none;fillColor=none;align=center;verticalAlign=middle;whiteSpace=wrap;rounded=0;" parent="1" vertex="1">
                    <mxGeometry x="500" y="200" width="20" height="20" as="geometry"/>
                </mxCell>
                <mxCell id="XBnS1yBzff7NUHpE4Zis-8" style="edgeStyle=orthogonalEdgeStyle;rounded=0;orthogonalLoop=1;jettySize=auto;html=1;entryX=0.5;entryY=1;entryDx=0;entryDy=0;strokeColor=#B3B3B3;" parent="1" source="XBnS1yBzff7NUHpE4Zis-5" target="1ea317790d2ca983-1" edge="1">
                    <mxGeometry relative="1" as="geometry"/>
                </mxCell>
                <mxCell id="XBnS1yBzff7NUHpE4Zis-5" value="Dependency" style="text;html=1;fillColor=#f5f5f5;align=center;verticalAlign=middle;whiteSpace=wrap;rounded=0;strokeColor=#666666;fontColor=#333333;" parent="1" vertex="1">
                    <mxGeometry x="422.5" y="293" width="85" height="20" as="geometry"/>
                </mxCell>
                <mxCell id="XBnS1yBzff7NUHpE4Zis-12" style="edgeStyle=orthogonalEdgeStyle;rounded=0;orthogonalLoop=1;jettySize=auto;html=1;exitX=0.5;exitY=1;exitDx=0;exitDy=0;entryX=0.5;entryY=0;entryDx=0;entryDy=0;strokeColor=#B3B3B3;" parent="1" source="XBnS1yBzff7NUHpE4Zis-9" target="XBnS1yBzff7NUHpE4Zis-4" edge="1">
                    <mxGeometry relative="1" as="geometry"/>
                </mxCell>
                <mxCell id="XBnS1yBzff7NUHpE4Zis-9" value="Activity Id" style="text;html=1;fillColor=#f5f5f5;align=center;verticalAlign=middle;whiteSpace=wrap;rounded=0;strokeColor=#666666;fontColor=#333333;" parent="1" vertex="1">
                    <mxGeometry x="468" y="149" width="85" height="20" as="geometry"/>
                </mxCell>
                <mxCell id="XBnS1yBzff7NUHpE4Zis-15" style="edgeStyle=orthogonalEdgeStyle;rounded=0;orthogonalLoop=1;jettySize=auto;html=1;exitX=0.5;exitY=1;exitDx=0;exitDy=0;entryX=0.5;entryY=0;entryDx=0;entryDy=0;strokeColor=#B3B3B3;" parent="1" source="XBnS1yBzff7NUHpE4Zis-13" target="XBnS1yBzff7NUHpE4Zis-3" edge="1">
                    <mxGeometry relative="1" as="geometry"/>
                </mxCell>
                <mxCell id="XBnS1yBzff7NUHpE4Zis-13" value="Activity Id" style="text;html=1;fillColor=#f5f5f5;align=center;verticalAlign=middle;whiteSpace=wrap;rounded=0;strokeColor=#666666;fontColor=#333333;" parent="1" vertex="1">
                    <mxGeometry x="357.5" y="149" width="85" height="20" as="geometry"/>
                </mxCell>
                <mxCell id="XBnS1yBzff7NUHpE4Zis-16" value="&lt;font&gt;5&lt;/font&gt;" style="text;html=1;strokeColor=none;fillColor=none;align=center;verticalAlign=middle;whiteSpace=wrap;rounded=0;fontColor=#B9E0A5;" parent="1" vertex="1">
                    <mxGeometry x="390" y="223" width="20" height="20" as="geometry"/>
                </mxCell>
                <mxCell id="XBnS1yBzff7NUHpE4Zis-18" value="&lt;font&gt;20&lt;/font&gt;" style="text;html=1;strokeColor=none;fillColor=none;align=center;verticalAlign=middle;whiteSpace=wrap;rounded=0;fontColor=#FFD966;" parent="1" vertex="1">
                    <mxGeometry x="500" y="223" width="20" height="20" as="geometry"/>
                </mxCell>
                <mxCell id="XBnS1yBzff7NUHpE4Zis-22" style="edgeStyle=orthogonalEdgeStyle;rounded=0;orthogonalLoop=1;jettySize=auto;html=1;exitX=0.5;exitY=0;exitDx=0;exitDy=0;entryX=0.5;entryY=1;entryDx=0;entryDy=0;strokeColor=#B3B3B3;" parent="1" source="XBnS1yBzff7NUHpE4Zis-19" target="XBnS1yBzff7NUHpE4Zis-16" edge="1">
                    <mxGeometry relative="1" as="geometry"/>
                </mxCell>
                <mxCell id="XBnS1yBzff7NUHpE4Zis-19" value="&lt;font style=&quot;font-size: 11px&quot;&gt;Estimate &lt;br&gt;or Float&lt;/font&gt;" style="text;html=1;fillColor=#f5f5f5;align=center;verticalAlign=middle;whiteSpace=wrap;rounded=0;strokeColor=#666666;fontColor=#333333;" parent="1" vertex="1">
                    <mxGeometry x="370" y="260" width="60" height="30" as="geometry"/>
                </mxCell>
                <mxCell id="XBnS1yBzff7NUHpE4Zis-21" style="edgeStyle=orthogonalEdgeStyle;rounded=0;orthogonalLoop=1;jettySize=auto;html=1;exitX=0.5;exitY=0;exitDx=0;exitDy=0;entryX=0.5;entryY=1;entryDx=0;entryDy=0;strokeColor=#B3B3B3;" parent="1" source="XBnS1yBzff7NUHpE4Zis-20" target="XBnS1yBzff7NUHpE4Zis-18" edge="1">
                    <mxGeometry relative="1" as="geometry"/>
                </mxCell>
                <mxCell id="XBnS1yBzff7NUHpE4Zis-20" value="&lt;span style=&quot;font-size: 11px&quot;&gt;Estimate&amp;nbsp;&lt;/span&gt;&lt;br style=&quot;font-size: 11px&quot;&gt;&lt;span style=&quot;font-size: 11px&quot;&gt;or Float&lt;/span&gt;" style="text;html=1;fillColor=#f5f5f5;align=center;verticalAlign=middle;whiteSpace=wrap;rounded=0;strokeColor=#666666;fontColor=#333333;" parent="1" vertex="1">
                    <mxGeometry x="480" y="260" width="60" height="30" as="geometry"/>
                </mxCell>
            </root>
        </mxGraphModel>
    </diagram>
    <diagram id="NeZSsnfrJtzCHBNunnr2" name="Recipe Graph">
        <mxGraphModel dx="1422" dy="746" grid="1" gridSize="10" guides="1" tooltips="1" connect="1" arrows="1" fold="1" page="1" pageScale="1" pageWidth="850" pageHeight="1100" math="0" shadow="0">
            <root>
                <mxCell id="tL4FlOT15kKanCZEZSTj-0"/>
                <mxCell id="tL4FlOT15kKanCZEZSTj-1" parent="tL4FlOT15kKanCZEZSTj-0"/>
                <mxCell id="89Di526m8O9twU9Fi9_I-0" value="&lt;font color=&quot;#000000&quot; style=&quot;font-size: 28px&quot;&gt;Serving Chili (Effort labeled)&lt;/font&gt;" style="text;html=1;strokeColor=none;fillColor=none;align=center;verticalAlign=middle;whiteSpace=wrap;rounded=0;fontColor=#FFD966;" parent="tL4FlOT15kKanCZEZSTj-1" vertex="1">
                    <mxGeometry x="325" y="180" width="190" height="20" as="geometry"/>
                </mxCell>
                <mxCell id="xuurNHpH_lzePcyJKRcF-1" style="edgeStyle=none;rounded=0;orthogonalLoop=1;jettySize=auto;html=1;entryX=0;entryY=0.5;entryDx=0;entryDy=0;strokeColor=#000000;fontColor=#000000;" parent="tL4FlOT15kKanCZEZSTj-1" source="89Di526m8O9twU9Fi9_I-1" target="xuurNHpH_lzePcyJKRcF-0" edge="1">
                    <mxGeometry relative="1" as="geometry"/>
                </mxCell>
                <mxCell id="89Di526m8O9twU9Fi9_I-1" value="" style="ellipse;whiteSpace=wrap;html=1;aspect=fixed;rounded=0;strokeColor=#000000;fontColor=#FFD966;" parent="tL4FlOT15kKanCZEZSTj-1" vertex="1">
                    <mxGeometry x="150" y="240" width="30" height="30" as="geometry"/>
                </mxCell>
                <mxCell id="xuurNHpH_lzePcyJKRcF-34" style="edgeStyle=none;rounded=0;orthogonalLoop=1;jettySize=auto;html=1;exitX=1;exitY=0.5;exitDx=0;exitDy=0;entryX=0.5;entryY=0;entryDx=0;entryDy=0;strokeColor=#000000;fontColor=#000000;" parent="tL4FlOT15kKanCZEZSTj-1" source="xuurNHpH_lzePcyJKRcF-0" target="xuurNHpH_lzePcyJKRcF-32" edge="1">
                    <mxGeometry relative="1" as="geometry">
                        <Array as="points">
                            <mxPoint x="350" y="255"/>
                        </Array>
                    </mxGeometry>
                </mxCell>
                <mxCell id="xuurNHpH_lzePcyJKRcF-0" value="" style="ellipse;whiteSpace=wrap;html=1;aspect=fixed;rounded=0;strokeColor=#000000;fontColor=#FFD966;" parent="tL4FlOT15kKanCZEZSTj-1" vertex="1">
                    <mxGeometry x="262" y="240" width="30" height="30" as="geometry"/>
                </mxCell>
                <mxCell id="xuurNHpH_lzePcyJKRcF-2" value="Thaw Ground Beef" style="text;html=1;strokeColor=none;fillColor=none;align=center;verticalAlign=middle;whiteSpace=wrap;rounded=0;fontColor=#000000;" parent="tL4FlOT15kKanCZEZSTj-1" vertex="1">
                    <mxGeometry x="190" y="230" width="80" height="20" as="geometry"/>
                </mxCell>
                <mxCell id="xuurNHpH_lzePcyJKRcF-8" style="edgeStyle=none;rounded=0;orthogonalLoop=1;jettySize=auto;html=1;entryX=0;entryY=0.5;entryDx=0;entryDy=0;strokeColor=#000000;fontColor=#000000;" parent="tL4FlOT15kKanCZEZSTj-1" source="xuurNHpH_lzePcyJKRcF-9" target="xuurNHpH_lzePcyJKRcF-32" edge="1">
                    <mxGeometry relative="1" as="geometry">
                        <mxPoint x="249" y="325" as="targetPoint"/>
                    </mxGeometry>
                </mxCell>
                <mxCell id="xuurNHpH_lzePcyJKRcF-9" value="" style="ellipse;whiteSpace=wrap;html=1;aspect=fixed;rounded=0;strokeColor=#000000;fontColor=#FFD966;" parent="tL4FlOT15kKanCZEZSTj-1" vertex="1">
                    <mxGeometry x="149" y="310" width="30" height="30" as="geometry"/>
                </mxCell>
                <mxCell id="xuurNHpH_lzePcyJKRcF-11" value="Open Beans" style="text;html=1;strokeColor=none;fillColor=none;align=center;verticalAlign=middle;whiteSpace=wrap;rounded=0;fontColor=#000000;" parent="tL4FlOT15kKanCZEZSTj-1" vertex="1">
                    <mxGeometry x="203" y="305" width="80" height="20" as="geometry"/>
                </mxCell>
                <mxCell id="xuurNHpH_lzePcyJKRcF-12" style="rounded=0;orthogonalLoop=1;jettySize=auto;html=1;entryX=0;entryY=1;entryDx=0;entryDy=0;strokeColor=#000000;fontColor=#000000;" parent="tL4FlOT15kKanCZEZSTj-1" source="xuurNHpH_lzePcyJKRcF-13" target="xuurNHpH_lzePcyJKRcF-32" edge="1">
                    <mxGeometry relative="1" as="geometry">
                        <mxPoint x="249" y="395" as="targetPoint"/>
                        <Array as="points">
                            <mxPoint x="280" y="400"/>
                        </Array>
                    </mxGeometry>
                </mxCell>
                <mxCell id="xuurNHpH_lzePcyJKRcF-13" value="" style="ellipse;whiteSpace=wrap;html=1;aspect=fixed;rounded=0;strokeColor=#000000;fontColor=#FFD966;" parent="tL4FlOT15kKanCZEZSTj-1" vertex="1">
                    <mxGeometry x="149" y="385" width="30" height="30" as="geometry"/>
                </mxCell>
                <mxCell id="xuurNHpH_lzePcyJKRcF-15" value="Open Tomatoes" style="text;html=1;strokeColor=none;fillColor=none;align=center;verticalAlign=middle;whiteSpace=wrap;rounded=0;fontColor=#000000;" parent="tL4FlOT15kKanCZEZSTj-1" vertex="1">
                    <mxGeometry x="205" y="374" width="80" height="20" as="geometry"/>
                </mxCell>
                <mxCell id="xuurNHpH_lzePcyJKRcF-37" style="edgeStyle=none;rounded=0;orthogonalLoop=1;jettySize=auto;html=1;exitX=1;exitY=0.5;exitDx=0;exitDy=0;entryX=0.5;entryY=1;entryDx=0;entryDy=0;strokeColor=#000000;fontColor=#000000;" parent="tL4FlOT15kKanCZEZSTj-1" source="xuurNHpH_lzePcyJKRcF-18" target="xuurNHpH_lzePcyJKRcF-32" edge="1">
                    <mxGeometry relative="1" as="geometry">
                        <Array as="points">
                            <mxPoint x="340" y="525"/>
                        </Array>
                    </mxGeometry>
                </mxCell>
                <mxCell id="xuurNHpH_lzePcyJKRcF-18" value="" style="ellipse;whiteSpace=wrap;html=1;aspect=fixed;rounded=0;strokeColor=#000000;fontColor=#FFD966;" parent="tL4FlOT15kKanCZEZSTj-1" vertex="1">
                    <mxGeometry x="260" y="509" width="30" height="30" as="geometry"/>
                </mxCell>
                <mxCell id="xuurNHpH_lzePcyJKRcF-22" value="" style="ellipse;whiteSpace=wrap;html=1;aspect=fixed;rounded=0;strokeColor=#000000;fontColor=#FFD966;" parent="tL4FlOT15kKanCZEZSTj-1" vertex="1">
                    <mxGeometry x="151" y="509" width="30" height="30" as="geometry"/>
                </mxCell>
                <mxCell id="xuurNHpH_lzePcyJKRcF-24" value="4hr" style="text;html=1;strokeColor=none;fillColor=none;align=center;verticalAlign=middle;whiteSpace=wrap;rounded=0;fontColor=#000000;" parent="tL4FlOT15kKanCZEZSTj-1" vertex="1">
                    <mxGeometry x="208" y="255" width="40" height="20" as="geometry"/>
                </mxCell>
                <mxCell id="xuurNHpH_lzePcyJKRcF-26" value="&lt;span&gt;1min&lt;/span&gt;" style="text;html=1;align=center;verticalAlign=middle;resizable=0;points=[];autosize=1;fontColor=#000000;" parent="tL4FlOT15kKanCZEZSTj-1" vertex="1">
                    <mxGeometry x="216" y="324" width="40" height="20" as="geometry"/>
                </mxCell>
                <mxCell id="xuurNHpH_lzePcyJKRcF-27" value="&lt;span&gt;1min&lt;/span&gt;" style="text;html=1;align=center;verticalAlign=middle;resizable=0;points=[];autosize=1;fontColor=#000000;" parent="tL4FlOT15kKanCZEZSTj-1" vertex="1">
                    <mxGeometry x="220" y="397" width="40" height="20" as="geometry"/>
                </mxCell>
                <mxCell id="xuurNHpH_lzePcyJKRcF-41" style="edgeStyle=none;rounded=0;orthogonalLoop=1;jettySize=auto;html=1;entryX=0;entryY=0.5;entryDx=0;entryDy=0;strokeColor=#000000;fontColor=#000000;" parent="tL4FlOT15kKanCZEZSTj-1" source="xuurNHpH_lzePcyJKRcF-32" target="xuurNHpH_lzePcyJKRcF-38" edge="1">
                    <mxGeometry relative="1" as="geometry"/>
                </mxCell>
                <mxCell id="xuurNHpH_lzePcyJKRcF-32" value="" style="ellipse;whiteSpace=wrap;html=1;aspect=fixed;rounded=0;strokeColor=#000000;fontColor=#FFD966;" parent="tL4FlOT15kKanCZEZSTj-1" vertex="1">
                    <mxGeometry x="360" y="310" width="30" height="30" as="geometry"/>
                </mxCell>
                <mxCell id="xuurNHpH_lzePcyJKRcF-38" value="" style="ellipse;whiteSpace=wrap;html=1;aspect=fixed;rounded=0;strokeColor=#000000;fontColor=#FFD966;" parent="tL4FlOT15kKanCZEZSTj-1" vertex="1">
                    <mxGeometry x="450" y="310" width="30" height="30" as="geometry"/>
                </mxCell>
                <mxCell id="xuurNHpH_lzePcyJKRcF-42" style="edgeStyle=none;rounded=0;orthogonalLoop=1;jettySize=auto;html=1;entryX=0;entryY=0.5;entryDx=0;entryDy=0;strokeColor=#000000;fontColor=#000000;exitX=1;exitY=0.5;exitDx=0;exitDy=0;" parent="tL4FlOT15kKanCZEZSTj-1" source="xuurNHpH_lzePcyJKRcF-38" target="xuurNHpH_lzePcyJKRcF-43" edge="1">
                    <mxGeometry relative="1" as="geometry">
                        <mxPoint x="490" y="325" as="sourcePoint"/>
                    </mxGeometry>
                </mxCell>
                <mxCell id="xuurNHpH_lzePcyJKRcF-45" style="edgeStyle=none;rounded=0;orthogonalLoop=1;jettySize=auto;html=1;entryX=0;entryY=0.5;entryDx=0;entryDy=0;strokeColor=#000000;fontColor=#000000;" parent="tL4FlOT15kKanCZEZSTj-1" source="xuurNHpH_lzePcyJKRcF-43" target="xuurNHpH_lzePcyJKRcF-44" edge="1">
                    <mxGeometry relative="1" as="geometry"/>
                </mxCell>
                <mxCell id="xuurNHpH_lzePcyJKRcF-43" value="" style="ellipse;whiteSpace=wrap;html=1;aspect=fixed;rounded=0;strokeColor=#000000;fontColor=#FFD966;" parent="tL4FlOT15kKanCZEZSTj-1" vertex="1">
                    <mxGeometry x="550" y="310" width="30" height="30" as="geometry"/>
                </mxCell>
                <mxCell id="xuurNHpH_lzePcyJKRcF-44" value="" style="ellipse;whiteSpace=wrap;html=1;aspect=fixed;rounded=0;strokeColor=#000000;fontColor=#FFD966;" parent="tL4FlOT15kKanCZEZSTj-1" vertex="1">
                    <mxGeometry x="650" y="310" width="30" height="30" as="geometry"/>
                </mxCell>
                <mxCell id="xuurNHpH_lzePcyJKRcF-50" value="Brown Beef" style="text;html=1;strokeColor=none;fillColor=none;align=center;verticalAlign=middle;whiteSpace=wrap;rounded=0;fontColor=#000000;rotation=0;" parent="tL4FlOT15kKanCZEZSTj-1" vertex="1">
                    <mxGeometry x="285" y="235" width="80" height="20" as="geometry"/>
                </mxCell>
                <mxCell id="xuurNHpH_lzePcyJKRcF-74" style="edgeStyle=none;rounded=0;orthogonalLoop=1;jettySize=auto;html=1;entryX=0;entryY=1;entryDx=0;entryDy=0;strokeColor=#000000;fontColor=#000000;" parent="tL4FlOT15kKanCZEZSTj-1" source="xuurNHpH_lzePcyJKRcF-56" target="xuurNHpH_lzePcyJKRcF-43" edge="1">
                    <mxGeometry relative="1" as="geometry">
                        <Array as="points">
                            <mxPoint x="530" y="412"/>
                        </Array>
                    </mxGeometry>
                </mxCell>
                <mxCell id="xuurNHpH_lzePcyJKRcF-56" value="" style="ellipse;whiteSpace=wrap;html=1;aspect=fixed;rounded=0;strokeColor=#000000;fontColor=#FFD966;" parent="tL4FlOT15kKanCZEZSTj-1" vertex="1">
                    <mxGeometry x="420" y="397" width="30" height="30" as="geometry"/>
                </mxCell>
                <mxCell id="xuurNHpH_lzePcyJKRcF-16" style="edgeStyle=none;rounded=0;orthogonalLoop=1;jettySize=auto;html=1;strokeColor=#000000;fontColor=#000000;entryX=0;entryY=0;entryDx=0;entryDy=0;" parent="tL4FlOT15kKanCZEZSTj-1" source="xuurNHpH_lzePcyJKRcF-17" target="xuurNHpH_lzePcyJKRcF-18" edge="1">
                    <mxGeometry relative="1" as="geometry">
                        <mxPoint x="91" y="32.66025403784437" as="targetPoint"/>
                        <Array as="points">
                            <mxPoint x="250" y="470"/>
                        </Array>
                    </mxGeometry>
                </mxCell>
                <mxCell id="xuurNHpH_lzePcyJKRcF-58" value="" style="group" parent="tL4FlOT15kKanCZEZSTj-1" vertex="1" connectable="0">
                    <mxGeometry x="176" y="508" width="80" height="20" as="geometry"/>
                </mxCell>
                <mxCell id="xuurNHpH_lzePcyJKRcF-23" style="edgeStyle=none;rounded=0;orthogonalLoop=1;jettySize=auto;html=1;entryX=0;entryY=0.5;entryDx=0;entryDy=0;strokeColor=#000000;fontColor=#000000;" parent="xuurNHpH_lzePcyJKRcF-58" source="xuurNHpH_lzePcyJKRcF-22" target="xuurNHpH_lzePcyJKRcF-18" edge="1">
                    <mxGeometry relative="1" as="geometry"/>
                </mxCell>
                <mxCell id="xuurNHpH_lzePcyJKRcF-28" value="Add Paprika" style="text;html=1;strokeColor=none;fillColor=none;align=center;verticalAlign=middle;whiteSpace=wrap;rounded=0;fontColor=#000000;" parent="xuurNHpH_lzePcyJKRcF-58" vertex="1">
                    <mxGeometry width="80" height="20" as="geometry"/>
                </mxCell>
                <mxCell id="xuurNHpH_lzePcyJKRcF-31" style="edgeStyle=none;rounded=0;orthogonalLoop=1;jettySize=auto;html=1;entryX=0;entryY=1;entryDx=0;entryDy=0;strokeColor=#000000;fontColor=#000000;" parent="tL4FlOT15kKanCZEZSTj-1" source="xuurNHpH_lzePcyJKRcF-30" target="xuurNHpH_lzePcyJKRcF-18" edge="1">
                    <mxGeometry relative="1" as="geometry">
                        <Array as="points">
                            <mxPoint x="250" y="575"/>
                        </Array>
                    </mxGeometry>
                </mxCell>
                <mxCell id="xuurNHpH_lzePcyJKRcF-30" value="" style="ellipse;whiteSpace=wrap;html=1;aspect=fixed;rounded=0;strokeColor=#000000;fontColor=#FFD966;" parent="tL4FlOT15kKanCZEZSTj-1" vertex="1">
                    <mxGeometry x="151" y="560" width="30" height="30" as="geometry"/>
                </mxCell>
                <mxCell id="xuurNHpH_lzePcyJKRcF-55" value="Add Garlic" style="text;html=1;strokeColor=none;fillColor=none;align=center;verticalAlign=middle;whiteSpace=wrap;rounded=0;fontColor=#000000;rotation=0;" parent="tL4FlOT15kKanCZEZSTj-1" vertex="1">
                    <mxGeometry x="175" y="555" width="80" height="20" as="geometry"/>
                </mxCell>
                <mxCell id="xuurNHpH_lzePcyJKRcF-17" value="" style="ellipse;whiteSpace=wrap;html=1;aspect=fixed;rounded=0;strokeColor=#000000;fontColor=#FFD966;" parent="tL4FlOT15kKanCZEZSTj-1" vertex="1">
                    <mxGeometry x="150.36" y="455" width="30" height="30" as="geometry"/>
                </mxCell>
                <mxCell id="xuurNHpH_lzePcyJKRcF-19" value="Add Chili powder" style="text;html=1;strokeColor=none;fillColor=none;align=center;verticalAlign=middle;whiteSpace=wrap;rounded=0;fontColor=#000000;rotation=0;" parent="tL4FlOT15kKanCZEZSTj-1" vertex="1">
                    <mxGeometry x="168" y="445" width="80" height="20" as="geometry"/>
                </mxCell>
                <mxCell id="xuurNHpH_lzePcyJKRcF-69" value="Combine Ingredients" style="text;html=1;strokeColor=none;fillColor=none;align=center;verticalAlign=middle;whiteSpace=wrap;rounded=0;fontColor=#000000;" parent="tL4FlOT15kKanCZEZSTj-1" vertex="1">
                    <mxGeometry x="380" y="300" width="80" height="20" as="geometry"/>
                </mxCell>
                <mxCell id="xuurNHpH_lzePcyJKRcF-71" value="Simmer" style="text;html=1;strokeColor=none;fillColor=none;align=center;verticalAlign=middle;whiteSpace=wrap;rounded=0;fontColor=#000000;" parent="tL4FlOT15kKanCZEZSTj-1" vertex="1">
                    <mxGeometry x="470" y="300" width="80" height="20" as="geometry"/>
                </mxCell>
                <mxCell id="xuurNHpH_lzePcyJKRcF-72" value="Serve" style="text;html=1;strokeColor=none;fillColor=none;align=center;verticalAlign=middle;whiteSpace=wrap;rounded=0;fontColor=#000000;" parent="tL4FlOT15kKanCZEZSTj-1" vertex="1">
                    <mxGeometry x="570" y="304" width="80" height="20" as="geometry"/>
                </mxCell>
                <mxCell id="xuurNHpH_lzePcyJKRcF-76" value="Prepare Bowls&lt;br&gt;" style="text;html=1;strokeColor=none;fillColor=none;align=center;verticalAlign=middle;whiteSpace=wrap;rounded=0;fontColor=#000000;" parent="tL4FlOT15kKanCZEZSTj-1" vertex="1">
                    <mxGeometry x="450" y="388" width="80" height="20" as="geometry"/>
                </mxCell>
                <mxCell id="xuurNHpH_lzePcyJKRcF-81" style="edgeStyle=none;rounded=0;orthogonalLoop=1;jettySize=auto;html=1;entryX=0.5;entryY=1;entryDx=0;entryDy=0;strokeColor=#000000;fontColor=#000000;" parent="tL4FlOT15kKanCZEZSTj-1" source="xuurNHpH_lzePcyJKRcF-82" target="xuurNHpH_lzePcyJKRcF-43" edge="1">
                    <mxGeometry relative="1" as="geometry">
                        <mxPoint x="554.3933982822018" y="384.99660171779817" as="targetPoint"/>
                        <Array as="points">
                            <mxPoint x="530" y="461.39"/>
                        </Array>
                    </mxGeometry>
                </mxCell>
                <mxCell id="xuurNHpH_lzePcyJKRcF-82" value="" style="ellipse;whiteSpace=wrap;html=1;aspect=fixed;rounded=0;strokeColor=#000000;fontColor=#FFD966;" parent="tL4FlOT15kKanCZEZSTj-1" vertex="1">
                    <mxGeometry x="420" y="446.39" width="30" height="30" as="geometry"/>
                </mxCell>
                <mxCell id="xuurNHpH_lzePcyJKRcF-83" value="Prepare Spoons" style="text;html=1;strokeColor=none;fillColor=none;align=center;verticalAlign=middle;whiteSpace=wrap;rounded=0;fontColor=#000000;" parent="tL4FlOT15kKanCZEZSTj-1" vertex="1">
                    <mxGeometry x="450" y="437.39" width="80" height="20" as="geometry"/>
                </mxCell>
                <mxCell id="xuurNHpH_lzePcyJKRcF-85" value="1min" style="text;html=1;strokeColor=none;fillColor=none;align=center;verticalAlign=middle;whiteSpace=wrap;rounded=0;fontColor=#000000;" parent="tL4FlOT15kKanCZEZSTj-1" vertex="1">
                    <mxGeometry x="190" y="471" width="40" height="20" as="geometry"/>
                </mxCell>
                <mxCell id="xuurNHpH_lzePcyJKRcF-86" value="1min" style="text;html=1;strokeColor=none;fillColor=none;align=center;verticalAlign=middle;whiteSpace=wrap;rounded=0;fontColor=#000000;" parent="tL4FlOT15kKanCZEZSTj-1" vertex="1">
                    <mxGeometry x="190" y="528" width="40" height="20" as="geometry"/>
                </mxCell>
                <mxCell id="xuurNHpH_lzePcyJKRcF-87" value="1min" style="text;html=1;strokeColor=none;fillColor=none;align=center;verticalAlign=middle;whiteSpace=wrap;rounded=0;fontColor=#000000;" parent="tL4FlOT15kKanCZEZSTj-1" vertex="1">
                    <mxGeometry x="190" y="577" width="40" height="20" as="geometry"/>
                </mxCell>
                <mxCell id="xuurNHpH_lzePcyJKRcF-88" value="5min" style="text;html=1;strokeColor=none;fillColor=none;align=center;verticalAlign=middle;whiteSpace=wrap;rounded=0;fontColor=#000000;rotation=0;" parent="tL4FlOT15kKanCZEZSTj-1" vertex="1">
                    <mxGeometry x="300" y="255" width="40" height="20" as="geometry"/>
                </mxCell>
                <mxCell id="xuurNHpH_lzePcyJKRcF-95" value="&lt;span&gt;2min&lt;/span&gt;" style="text;html=1;align=center;verticalAlign=middle;resizable=0;points=[];autosize=1;fontColor=#000000;" parent="tL4FlOT15kKanCZEZSTj-1" vertex="1">
                    <mxGeometry x="400" y="325" width="40" height="20" as="geometry"/>
                </mxCell>
                <mxCell id="xuurNHpH_lzePcyJKRcF-96" value="&lt;span&gt;1h&lt;/span&gt;" style="text;html=1;align=center;verticalAlign=middle;resizable=0;points=[];autosize=1;fontColor=#000000;" parent="tL4FlOT15kKanCZEZSTj-1" vertex="1">
                    <mxGeometry x="495" y="324" width="30" height="20" as="geometry"/>
                </mxCell>
                <mxCell id="xuurNHpH_lzePcyJKRcF-97" value="&lt;span&gt;10min&lt;/span&gt;" style="text;html=1;align=center;verticalAlign=middle;resizable=0;points=[];autosize=1;fontColor=#000000;" parent="tL4FlOT15kKanCZEZSTj-1" vertex="1">
                    <mxGeometry x="465" y="410" width="50" height="20" as="geometry"/>
                </mxCell>
                <mxCell id="xuurNHpH_lzePcyJKRcF-99" value="&lt;span&gt;10min&lt;/span&gt;" style="text;html=1;align=center;verticalAlign=middle;resizable=0;points=[];autosize=1;fontColor=#000000;" parent="tL4FlOT15kKanCZEZSTj-1" vertex="1">
                    <mxGeometry x="466" y="459" width="50" height="20" as="geometry"/>
                </mxCell>
                <mxCell id="xuurNHpH_lzePcyJKRcF-100" value="Mix Spices" style="text;html=1;strokeColor=none;fillColor=none;align=center;verticalAlign=middle;whiteSpace=wrap;rounded=0;fontColor=#000000;" parent="tL4FlOT15kKanCZEZSTj-1" vertex="1">
                    <mxGeometry x="290" y="500" width="50" height="20" as="geometry"/>
                </mxCell>
                <mxCell id="xuurNHpH_lzePcyJKRcF-102" value="1min" style="text;html=1;strokeColor=none;fillColor=none;align=center;verticalAlign=middle;whiteSpace=wrap;rounded=0;fontColor=#000000;" parent="tL4FlOT15kKanCZEZSTj-1" vertex="1">
                    <mxGeometry x="290" y="525" width="50" height="20" as="geometry"/>
                </mxCell>
                <mxCell id="N4avOa-GbnIwMCGPodeH-0" value="*Time Granularity of 1 minute" style="text;html=1;align=center;verticalAlign=middle;resizable=0;points=[];autosize=1;fontSize=16;fontColor=#000000;" parent="tL4FlOT15kKanCZEZSTj-1" vertex="1">
                    <mxGeometry x="400" y="555" width="220" height="20" as="geometry"/>
                </mxCell>
            </root>
        </mxGraphModel>
    </diagram>
    <diagram name="Chili - Floats" id="aC3gD7pT6vE5axaE1PVe">
        <mxGraphModel dx="1422" dy="746" grid="1" gridSize="10" guides="1" tooltips="1" connect="1" arrows="1" fold="1" page="1" pageScale="1" pageWidth="850" pageHeight="1100" math="0" shadow="0">
            <root>
                <mxCell id="m0E6UXEfr-cW1HFd-i3F-0"/>
                <mxCell id="m0E6UXEfr-cW1HFd-i3F-1" parent="m0E6UXEfr-cW1HFd-i3F-0"/>
                <mxCell id="m0E6UXEfr-cW1HFd-i3F-2" value="&lt;font color=&quot;#000000&quot; style=&quot;font-size: 28px&quot;&gt;Serving Chili (Float Labeled)&lt;/font&gt;" style="text;html=1;strokeColor=none;fillColor=none;align=center;verticalAlign=middle;whiteSpace=wrap;rounded=0;fontColor=#FFD966;" parent="m0E6UXEfr-cW1HFd-i3F-1" vertex="1">
                    <mxGeometry x="325" y="180" width="215" height="20" as="geometry"/>
                </mxCell>
                <mxCell id="m0E6UXEfr-cW1HFd-i3F-5" style="edgeStyle=none;rounded=0;orthogonalLoop=1;jettySize=auto;html=1;exitX=1;exitY=0.5;exitDx=0;exitDy=0;entryX=0.5;entryY=0;entryDx=0;entryDy=0;strokeColor=#000000;fontColor=#000000;fontSize=16;fontStyle=1;strokeWidth=2;" parent="m0E6UXEfr-cW1HFd-i3F-1" source="m0E6UXEfr-cW1HFd-i3F-6" target="m0E6UXEfr-cW1HFd-i3F-21" edge="1">
                    <mxGeometry relative="1" as="geometry">
                        <Array as="points">
                            <mxPoint x="350" y="255"/>
                        </Array>
                    </mxGeometry>
                </mxCell>
                <mxCell id="m0E6UXEfr-cW1HFd-i3F-6" value="" style="ellipse;whiteSpace=wrap;html=1;aspect=fixed;rounded=0;strokeColor=#000000;fontColor=#FFD966;strokeWidth=2;" parent="m0E6UXEfr-cW1HFd-i3F-1" vertex="1">
                    <mxGeometry x="230" y="240" width="30" height="30" as="geometry"/>
                </mxCell>
                <mxCell id="m0E6UXEfr-cW1HFd-i3F-8" style="edgeStyle=none;rounded=0;orthogonalLoop=1;jettySize=auto;html=1;entryX=0;entryY=0.5;entryDx=0;entryDy=0;fontColor=#000000;strokeColor=#CCCC00;" parent="m0E6UXEfr-cW1HFd-i3F-1" source="m0E6UXEfr-cW1HFd-i3F-9" target="m0E6UXEfr-cW1HFd-i3F-21" edge="1">
                    <mxGeometry relative="1" as="geometry">
                        <mxPoint x="249" y="325" as="targetPoint"/>
                    </mxGeometry>
                </mxCell>
                <mxCell id="m0E6UXEfr-cW1HFd-i3F-9" value="" style="ellipse;whiteSpace=wrap;html=1;aspect=fixed;rounded=0;fontColor=#FFD966;strokeColor=#CCCC00;" parent="m0E6UXEfr-cW1HFd-i3F-1" vertex="1">
                    <mxGeometry x="149" y="310" width="30" height="30" as="geometry"/>
                </mxCell>
                <mxCell id="m0E6UXEfr-cW1HFd-i3F-10" value="Open Beans" style="text;html=1;fillColor=none;align=center;verticalAlign=middle;whiteSpace=wrap;rounded=0;fontColor=#000000;" parent="m0E6UXEfr-cW1HFd-i3F-1" vertex="1">
                    <mxGeometry x="203" y="305" width="80" height="20" as="geometry"/>
                </mxCell>
                <mxCell id="m0E6UXEfr-cW1HFd-i3F-11" style="rounded=0;orthogonalLoop=1;jettySize=auto;html=1;entryX=0;entryY=1;entryDx=0;entryDy=0;fontColor=#000000;strokeColor=#CCCC00;" parent="m0E6UXEfr-cW1HFd-i3F-1" source="m0E6UXEfr-cW1HFd-i3F-12" target="m0E6UXEfr-cW1HFd-i3F-21" edge="1">
                    <mxGeometry relative="1" as="geometry">
                        <mxPoint x="249" y="395" as="targetPoint"/>
                        <Array as="points">
                            <mxPoint x="280" y="400"/>
                        </Array>
                    </mxGeometry>
                </mxCell>
                <mxCell id="m0E6UXEfr-cW1HFd-i3F-12" value="" style="ellipse;whiteSpace=wrap;html=1;aspect=fixed;rounded=0;fontColor=#FFD966;strokeColor=#CCCC00;" parent="m0E6UXEfr-cW1HFd-i3F-1" vertex="1">
                    <mxGeometry x="149" y="385" width="30" height="30" as="geometry"/>
                </mxCell>
                <mxCell id="m0E6UXEfr-cW1HFd-i3F-13" value="Open Tomatoes" style="text;html=1;fillColor=none;align=center;verticalAlign=middle;whiteSpace=wrap;rounded=0;fontColor=#000000;" parent="m0E6UXEfr-cW1HFd-i3F-1" vertex="1">
                    <mxGeometry x="205" y="374" width="80" height="20" as="geometry"/>
                </mxCell>
                <mxCell id="m0E6UXEfr-cW1HFd-i3F-14" style="edgeStyle=none;rounded=0;orthogonalLoop=1;jettySize=auto;html=1;exitX=1;exitY=0.5;exitDx=0;exitDy=0;entryX=0.5;entryY=1;entryDx=0;entryDy=0;fontColor=#000000;strokeColor=#FF0000;" parent="m0E6UXEfr-cW1HFd-i3F-1" source="m0E6UXEfr-cW1HFd-i3F-15" target="m0E6UXEfr-cW1HFd-i3F-21" edge="1">
                    <mxGeometry relative="1" as="geometry">
                        <Array as="points">
                            <mxPoint x="340" y="525"/>
                        </Array>
                    </mxGeometry>
                </mxCell>
                <mxCell id="m0E6UXEfr-cW1HFd-i3F-15" value="" style="ellipse;whiteSpace=wrap;html=1;aspect=fixed;rounded=0;fontColor=#FFD966;strokeColor=#FF0000;" parent="m0E6UXEfr-cW1HFd-i3F-1" vertex="1">
                    <mxGeometry x="260" y="509" width="30" height="30" as="geometry"/>
                </mxCell>
                <mxCell id="m0E6UXEfr-cW1HFd-i3F-16" value="" style="ellipse;whiteSpace=wrap;html=1;aspect=fixed;rounded=0;fontColor=#FFD966;strokeColor=#FF0000;" parent="m0E6UXEfr-cW1HFd-i3F-1" vertex="1">
                    <mxGeometry x="151" y="509" width="30" height="30" as="geometry"/>
                </mxCell>
                <mxCell id="m0E6UXEfr-cW1HFd-i3F-18" value="4m" style="text;html=1;align=center;verticalAlign=middle;resizable=0;points=[];autosize=1;fontColor=#000000;" parent="m0E6UXEfr-cW1HFd-i3F-1" vertex="1">
                    <mxGeometry x="221" y="324" width="30" height="20" as="geometry"/>
                </mxCell>
                <mxCell id="m0E6UXEfr-cW1HFd-i3F-19" value="&lt;span&gt;4m&lt;/span&gt;" style="text;html=1;align=center;verticalAlign=middle;resizable=0;points=[];autosize=1;fontColor=#000000;" parent="m0E6UXEfr-cW1HFd-i3F-1" vertex="1">
                    <mxGeometry x="225" y="397" width="30" height="20" as="geometry"/>
                </mxCell>
                <mxCell id="m0E6UXEfr-cW1HFd-i3F-20" style="edgeStyle=none;rounded=0;orthogonalLoop=1;jettySize=auto;html=1;entryX=0;entryY=0.5;entryDx=0;entryDy=0;strokeColor=#000000;fontColor=#000000;strokeWidth=2;" parent="m0E6UXEfr-cW1HFd-i3F-1" source="m0E6UXEfr-cW1HFd-i3F-21" target="m0E6UXEfr-cW1HFd-i3F-22" edge="1">
                    <mxGeometry relative="1" as="geometry"/>
                </mxCell>
                <mxCell id="m0E6UXEfr-cW1HFd-i3F-21" value="" style="ellipse;whiteSpace=wrap;html=1;aspect=fixed;rounded=0;strokeColor=#000000;fontColor=#FFD966;strokeWidth=2;" parent="m0E6UXEfr-cW1HFd-i3F-1" vertex="1">
                    <mxGeometry x="360" y="310" width="30" height="30" as="geometry"/>
                </mxCell>
                <mxCell id="m0E6UXEfr-cW1HFd-i3F-22" value="" style="ellipse;whiteSpace=wrap;html=1;aspect=fixed;rounded=0;strokeColor=#000000;fontColor=#FFD966;strokeWidth=2;" parent="m0E6UXEfr-cW1HFd-i3F-1" vertex="1">
                    <mxGeometry x="450" y="310" width="30" height="30" as="geometry"/>
                </mxCell>
                <mxCell id="m0E6UXEfr-cW1HFd-i3F-23" style="edgeStyle=none;rounded=0;orthogonalLoop=1;jettySize=auto;html=1;entryX=0;entryY=0.5;entryDx=0;entryDy=0;strokeColor=#000000;fontColor=#000000;exitX=1;exitY=0.5;exitDx=0;exitDy=0;strokeWidth=2;" parent="m0E6UXEfr-cW1HFd-i3F-1" source="m0E6UXEfr-cW1HFd-i3F-22" target="m0E6UXEfr-cW1HFd-i3F-25" edge="1">
                    <mxGeometry relative="1" as="geometry">
                        <mxPoint x="490" y="325" as="sourcePoint"/>
                    </mxGeometry>
                </mxCell>
                <mxCell id="m0E6UXEfr-cW1HFd-i3F-24" style="edgeStyle=none;rounded=0;orthogonalLoop=1;jettySize=auto;html=1;entryX=0;entryY=0.5;entryDx=0;entryDy=0;strokeColor=#000000;fontColor=#000000;strokeWidth=2;" parent="m0E6UXEfr-cW1HFd-i3F-1" source="m0E6UXEfr-cW1HFd-i3F-25" target="m0E6UXEfr-cW1HFd-i3F-26" edge="1">
                    <mxGeometry relative="1" as="geometry"/>
                </mxCell>
                <mxCell id="m0E6UXEfr-cW1HFd-i3F-25" value="" style="ellipse;whiteSpace=wrap;html=1;aspect=fixed;rounded=0;strokeColor=#000000;fontColor=#FFD966;strokeWidth=2;" parent="m0E6UXEfr-cW1HFd-i3F-1" vertex="1">
                    <mxGeometry x="550" y="310" width="30" height="30" as="geometry"/>
                </mxCell>
                <mxCell id="m0E6UXEfr-cW1HFd-i3F-26" value="" style="ellipse;whiteSpace=wrap;html=1;aspect=fixed;rounded=0;strokeColor=#000000;fontColor=#FFD966;strokeWidth=2;" parent="m0E6UXEfr-cW1HFd-i3F-1" vertex="1">
                    <mxGeometry x="650" y="310" width="30" height="30" as="geometry"/>
                </mxCell>
                <mxCell id="m0E6UXEfr-cW1HFd-i3F-27" value="Brown Beef" style="text;html=1;strokeColor=none;fillColor=none;align=center;verticalAlign=middle;whiteSpace=wrap;rounded=0;fontColor=#000000;rotation=0;strokeWidth=2;" parent="m0E6UXEfr-cW1HFd-i3F-1" vertex="1">
                    <mxGeometry x="269" y="235" width="80" height="20" as="geometry"/>
                </mxCell>
                <mxCell id="m0E6UXEfr-cW1HFd-i3F-28" style="edgeStyle=none;rounded=0;orthogonalLoop=1;jettySize=auto;html=1;entryX=0;entryY=1;entryDx=0;entryDy=0;fontColor=#000000;strokeColor=#00CC00;" parent="m0E6UXEfr-cW1HFd-i3F-1" source="m0E6UXEfr-cW1HFd-i3F-29" target="m0E6UXEfr-cW1HFd-i3F-25" edge="1">
                    <mxGeometry relative="1" as="geometry">
                        <Array as="points">
                            <mxPoint x="530" y="412"/>
                        </Array>
                    </mxGeometry>
                </mxCell>
                <mxCell id="m0E6UXEfr-cW1HFd-i3F-29" value="" style="ellipse;whiteSpace=wrap;html=1;aspect=fixed;rounded=0;fontColor=#FFD966;strokeColor=#00CC00;" parent="m0E6UXEfr-cW1HFd-i3F-1" vertex="1">
                    <mxGeometry x="420" y="397" width="30" height="30" as="geometry"/>
                </mxCell>
                <mxCell id="m0E6UXEfr-cW1HFd-i3F-30" style="edgeStyle=none;rounded=0;orthogonalLoop=1;jettySize=auto;html=1;fontColor=#000000;entryX=0;entryY=0;entryDx=0;entryDy=0;strokeColor=#FF0000;" parent="m0E6UXEfr-cW1HFd-i3F-1" source="m0E6UXEfr-cW1HFd-i3F-37" target="m0E6UXEfr-cW1HFd-i3F-15" edge="1">
                    <mxGeometry relative="1" as="geometry">
                        <mxPoint x="91" y="32.66025403784437" as="targetPoint"/>
                        <Array as="points">
                            <mxPoint x="250" y="470"/>
                        </Array>
                    </mxGeometry>
                </mxCell>
                <mxCell id="m0E6UXEfr-cW1HFd-i3F-31" value="" style="group;" parent="m0E6UXEfr-cW1HFd-i3F-1" vertex="1" connectable="0">
                    <mxGeometry x="176" y="508" width="80" height="20" as="geometry"/>
                </mxCell>
                <mxCell id="m0E6UXEfr-cW1HFd-i3F-32" style="edgeStyle=none;rounded=0;orthogonalLoop=1;jettySize=auto;html=1;entryX=0;entryY=0.5;entryDx=0;entryDy=0;fontColor=#000000;strokeColor=#FF0000;" parent="m0E6UXEfr-cW1HFd-i3F-31" source="m0E6UXEfr-cW1HFd-i3F-16" target="m0E6UXEfr-cW1HFd-i3F-15" edge="1">
                    <mxGeometry relative="1" as="geometry"/>
                </mxCell>
                <mxCell id="m0E6UXEfr-cW1HFd-i3F-33" value="Add Paprika" style="text;html=1;fillColor=none;align=center;verticalAlign=middle;whiteSpace=wrap;rounded=0;fontColor=#000000;" parent="m0E6UXEfr-cW1HFd-i3F-31" vertex="1">
                    <mxGeometry width="80" height="20" as="geometry"/>
                </mxCell>
                <mxCell id="m0E6UXEfr-cW1HFd-i3F-34" style="edgeStyle=none;rounded=0;orthogonalLoop=1;jettySize=auto;html=1;entryX=0;entryY=1;entryDx=0;entryDy=0;fontColor=#000000;strokeColor=#FF0000;" parent="m0E6UXEfr-cW1HFd-i3F-1" source="m0E6UXEfr-cW1HFd-i3F-35" target="m0E6UXEfr-cW1HFd-i3F-15" edge="1">
                    <mxGeometry relative="1" as="geometry">
                        <Array as="points">
                            <mxPoint x="250" y="575"/>
                        </Array>
                    </mxGeometry>
                </mxCell>
                <mxCell id="m0E6UXEfr-cW1HFd-i3F-35" value="" style="ellipse;whiteSpace=wrap;html=1;aspect=fixed;rounded=0;fontColor=#FFD966;strokeColor=#FF0000;" parent="m0E6UXEfr-cW1HFd-i3F-1" vertex="1">
                    <mxGeometry x="151" y="560" width="30" height="30" as="geometry"/>
                </mxCell>
                <mxCell id="m0E6UXEfr-cW1HFd-i3F-36" value="Add Garlic" style="text;html=1;fillColor=none;align=center;verticalAlign=middle;whiteSpace=wrap;rounded=0;fontColor=#000000;rotation=0;" parent="m0E6UXEfr-cW1HFd-i3F-1" vertex="1">
                    <mxGeometry x="175" y="555" width="80" height="20" as="geometry"/>
                </mxCell>
                <mxCell id="m0E6UXEfr-cW1HFd-i3F-37" value="" style="ellipse;whiteSpace=wrap;html=1;aspect=fixed;rounded=0;fontColor=#FFD966;strokeColor=#FF0000;" parent="m0E6UXEfr-cW1HFd-i3F-1" vertex="1">
                    <mxGeometry x="150.36" y="455" width="30" height="30" as="geometry"/>
                </mxCell>
                <mxCell id="m0E6UXEfr-cW1HFd-i3F-38" value="Add Chili powder" style="text;html=1;fillColor=none;align=center;verticalAlign=middle;whiteSpace=wrap;rounded=0;fontColor=#000000;rotation=0;" parent="m0E6UXEfr-cW1HFd-i3F-1" vertex="1">
                    <mxGeometry x="168" y="445" width="80" height="20" as="geometry"/>
                </mxCell>
                <mxCell id="m0E6UXEfr-cW1HFd-i3F-39" value="Combine Ingredients" style="text;html=1;strokeColor=none;fillColor=none;align=center;verticalAlign=middle;whiteSpace=wrap;rounded=0;fontColor=#000000;strokeWidth=2;" parent="m0E6UXEfr-cW1HFd-i3F-1" vertex="1">
                    <mxGeometry x="380" y="297" width="80" height="20" as="geometry"/>
                </mxCell>
                <mxCell id="m0E6UXEfr-cW1HFd-i3F-40" value="Simmer" style="text;html=1;strokeColor=none;fillColor=none;align=center;verticalAlign=middle;whiteSpace=wrap;rounded=0;fontColor=#000000;strokeWidth=2;" parent="m0E6UXEfr-cW1HFd-i3F-1" vertex="1">
                    <mxGeometry x="470" y="300" width="80" height="20" as="geometry"/>
                </mxCell>
                <mxCell id="m0E6UXEfr-cW1HFd-i3F-41" value="Serve" style="text;html=1;strokeColor=none;fillColor=none;align=center;verticalAlign=middle;whiteSpace=wrap;rounded=0;fontColor=#000000;strokeWidth=2;" parent="m0E6UXEfr-cW1HFd-i3F-1" vertex="1">
                    <mxGeometry x="570" y="300" width="80" height="20" as="geometry"/>
                </mxCell>
                <mxCell id="m0E6UXEfr-cW1HFd-i3F-42" value="Prepare Bowls&lt;br&gt;" style="text;html=1;fillColor=none;align=center;verticalAlign=middle;whiteSpace=wrap;rounded=0;fontColor=#000000;" parent="m0E6UXEfr-cW1HFd-i3F-1" vertex="1">
                    <mxGeometry x="450" y="388" width="80" height="20" as="geometry"/>
                </mxCell>
                <mxCell id="m0E6UXEfr-cW1HFd-i3F-43" style="edgeStyle=none;rounded=0;orthogonalLoop=1;jettySize=auto;html=1;entryX=0.5;entryY=1;entryDx=0;entryDy=0;fontColor=#000000;strokeColor=#00CC00;" parent="m0E6UXEfr-cW1HFd-i3F-1" source="m0E6UXEfr-cW1HFd-i3F-44" target="m0E6UXEfr-cW1HFd-i3F-25" edge="1">
                    <mxGeometry relative="1" as="geometry">
                        <mxPoint x="554.3933982822018" y="384.99660171779817" as="targetPoint"/>
                        <Array as="points">
                            <mxPoint x="530" y="461.39"/>
                        </Array>
                    </mxGeometry>
                </mxCell>
                <mxCell id="m0E6UXEfr-cW1HFd-i3F-44" value="" style="ellipse;whiteSpace=wrap;html=1;aspect=fixed;rounded=0;fontColor=#FFD966;strokeColor=#00CC00;" parent="m0E6UXEfr-cW1HFd-i3F-1" vertex="1">
                    <mxGeometry x="420" y="446.39" width="30" height="30" as="geometry"/>
                </mxCell>
                <mxCell id="m0E6UXEfr-cW1HFd-i3F-45" value="Prepare Spoons" style="text;html=1;fillColor=none;align=center;verticalAlign=middle;whiteSpace=wrap;rounded=0;fontColor=#000000;" parent="m0E6UXEfr-cW1HFd-i3F-1" vertex="1">
                    <mxGeometry x="450" y="437.39" width="80" height="20" as="geometry"/>
                </mxCell>
                <mxCell id="m0E6UXEfr-cW1HFd-i3F-46" value="3m" style="text;html=1;fillColor=none;align=center;verticalAlign=middle;whiteSpace=wrap;rounded=0;fontColor=#000000;" parent="m0E6UXEfr-cW1HFd-i3F-1" vertex="1">
                    <mxGeometry x="190" y="471" width="50" height="20" as="geometry"/>
                </mxCell>
                <mxCell id="m0E6UXEfr-cW1HFd-i3F-47" value="3m" style="text;html=1;fillColor=none;align=center;verticalAlign=middle;whiteSpace=wrap;rounded=0;fontColor=#000000;" parent="m0E6UXEfr-cW1HFd-i3F-1" vertex="1">
                    <mxGeometry x="190" y="528" width="50" height="20" as="geometry"/>
                </mxCell>
                <mxCell id="m0E6UXEfr-cW1HFd-i3F-48" value="3m" style="text;html=1;fillColor=none;align=center;verticalAlign=middle;whiteSpace=wrap;rounded=0;fontColor=#000000;" parent="m0E6UXEfr-cW1HFd-i3F-1" vertex="1">
                    <mxGeometry x="190" y="577" width="50" height="20" as="geometry"/>
                </mxCell>
                <mxCell id="m0E6UXEfr-cW1HFd-i3F-49" value="0" style="text;html=1;strokeColor=none;fillColor=none;align=center;verticalAlign=middle;whiteSpace=wrap;rounded=0;fontColor=#000000;rotation=0;strokeWidth=2;" parent="m0E6UXEfr-cW1HFd-i3F-1" vertex="1">
                    <mxGeometry x="284" y="255" width="40" height="20" as="geometry"/>
                </mxCell>
                <mxCell id="m0E6UXEfr-cW1HFd-i3F-50" value="&lt;span&gt;0&lt;/span&gt;" style="text;html=1;align=center;verticalAlign=middle;resizable=0;points=[];autosize=1;fontColor=#000000;strokeWidth=2;" parent="m0E6UXEfr-cW1HFd-i3F-1" vertex="1">
                    <mxGeometry x="410" y="325" width="20" height="20" as="geometry"/>
                </mxCell>
                <mxCell id="m0E6UXEfr-cW1HFd-i3F-51" value="&lt;span&gt;0&lt;/span&gt;" style="text;html=1;align=center;verticalAlign=middle;resizable=0;points=[];autosize=1;fontColor=#000000;strokeWidth=2;" parent="m0E6UXEfr-cW1HFd-i3F-1" vertex="1">
                    <mxGeometry x="500" y="324" width="20" height="20" as="geometry"/>
                </mxCell>
                <mxCell id="m0E6UXEfr-cW1HFd-i3F-52" value="&lt;span&gt;57m&lt;/span&gt;" style="text;html=1;align=center;verticalAlign=middle;resizable=0;points=[];autosize=1;fontColor=#000000;" parent="m0E6UXEfr-cW1HFd-i3F-1" vertex="1">
                    <mxGeometry x="471" y="410" width="40" height="20" as="geometry"/>
                </mxCell>
                <mxCell id="m0E6UXEfr-cW1HFd-i3F-53" value="&lt;span&gt;57m&lt;/span&gt;" style="text;html=1;align=center;verticalAlign=middle;resizable=0;points=[];autosize=1;fontColor=#000000;" parent="m0E6UXEfr-cW1HFd-i3F-1" vertex="1">
                    <mxGeometry x="471" y="459" width="40" height="20" as="geometry"/>
                </mxCell>
                <mxCell id="m0E6UXEfr-cW1HFd-i3F-54" value="Mix Spices" style="text;html=1;fillColor=none;align=center;verticalAlign=middle;whiteSpace=wrap;rounded=0;fontColor=#000000;" parent="m0E6UXEfr-cW1HFd-i3F-1" vertex="1">
                    <mxGeometry x="290" y="500" width="50" height="20" as="geometry"/>
                </mxCell>
                <mxCell id="m0E6UXEfr-cW1HFd-i3F-55" value="3m" style="text;html=1;fillColor=none;align=center;verticalAlign=middle;whiteSpace=wrap;rounded=0;fontColor=#000000;" parent="m0E6UXEfr-cW1HFd-i3F-1" vertex="1">
                    <mxGeometry x="290" y="525" width="50" height="20" as="geometry"/>
                </mxCell>
            </root>
        </mxGraphModel>
    </diagram>
    <diagram name="Chili - Floats With Thaw" id="fHqCT5M-s23s7uFPAcKN">
        <mxGraphModel dx="1422" dy="746" grid="1" gridSize="10" guides="1" tooltips="1" connect="1" arrows="1" fold="1" page="1" pageScale="1" pageWidth="850" pageHeight="1100" math="0" shadow="0">
            <root>
                <mxCell id="ZUB8ftVPdxE_-ksJxHDU-0"/>
                <mxCell id="ZUB8ftVPdxE_-ksJxHDU-1" parent="ZUB8ftVPdxE_-ksJxHDU-0"/>
                <mxCell id="ZUB8ftVPdxE_-ksJxHDU-2" value="&lt;font color=&quot;#000000&quot; style=&quot;font-size: 28px&quot;&gt;Serving Chili (Float Labeled)&lt;/font&gt;" style="text;html=1;strokeColor=none;fillColor=none;align=center;verticalAlign=middle;whiteSpace=wrap;rounded=0;fontColor=#FFD966;" parent="ZUB8ftVPdxE_-ksJxHDU-1" vertex="1">
                    <mxGeometry x="325" y="180" width="215" height="20" as="geometry"/>
                </mxCell>
                <mxCell id="ZUB8ftVPdxE_-ksJxHDU-3" style="edgeStyle=none;rounded=0;orthogonalLoop=1;jettySize=auto;html=1;entryX=0;entryY=0.5;entryDx=0;entryDy=0;strokeColor=#000000;fontColor=#000000;strokeWidth=2;" parent="ZUB8ftVPdxE_-ksJxHDU-1" source="ZUB8ftVPdxE_-ksJxHDU-4" target="ZUB8ftVPdxE_-ksJxHDU-6" edge="1">
                    <mxGeometry relative="1" as="geometry"/>
                </mxCell>
                <mxCell id="ZUB8ftVPdxE_-ksJxHDU-4" value="" style="ellipse;whiteSpace=wrap;html=1;aspect=fixed;rounded=0;strokeColor=#000000;fontColor=#FFD966;strokeWidth=2;" parent="ZUB8ftVPdxE_-ksJxHDU-1" vertex="1">
                    <mxGeometry x="150" y="240" width="30" height="30" as="geometry"/>
                </mxCell>
                <mxCell id="ZUB8ftVPdxE_-ksJxHDU-5" style="edgeStyle=none;rounded=0;orthogonalLoop=1;jettySize=auto;html=1;exitX=1;exitY=0.5;exitDx=0;exitDy=0;entryX=0.5;entryY=0;entryDx=0;entryDy=0;strokeColor=#000000;fontColor=#000000;fontSize=16;fontStyle=1;strokeWidth=2;" parent="ZUB8ftVPdxE_-ksJxHDU-1" source="ZUB8ftVPdxE_-ksJxHDU-6" target="ZUB8ftVPdxE_-ksJxHDU-21" edge="1">
                    <mxGeometry relative="1" as="geometry">
                        <Array as="points">
                            <mxPoint x="350" y="255"/>
                        </Array>
                    </mxGeometry>
                </mxCell>
                <mxCell id="ZUB8ftVPdxE_-ksJxHDU-6" value="" style="ellipse;whiteSpace=wrap;html=1;aspect=fixed;rounded=0;strokeColor=#000000;fontColor=#FFD966;strokeWidth=2;" parent="ZUB8ftVPdxE_-ksJxHDU-1" vertex="1">
                    <mxGeometry x="262" y="240" width="30" height="30" as="geometry"/>
                </mxCell>
                <mxCell id="ZUB8ftVPdxE_-ksJxHDU-7" value="Thaw Ground Beef" style="text;html=1;strokeColor=none;fillColor=none;align=center;verticalAlign=middle;whiteSpace=wrap;rounded=0;fontColor=#000000;" parent="ZUB8ftVPdxE_-ksJxHDU-1" vertex="1">
                    <mxGeometry x="190" y="230" width="80" height="20" as="geometry"/>
                </mxCell>
                <mxCell id="ZUB8ftVPdxE_-ksJxHDU-8" style="edgeStyle=none;rounded=0;orthogonalLoop=1;jettySize=auto;html=1;entryX=0;entryY=0.5;entryDx=0;entryDy=0;strokeColor=#000000;fontColor=#000000;" parent="ZUB8ftVPdxE_-ksJxHDU-1" source="ZUB8ftVPdxE_-ksJxHDU-9" target="ZUB8ftVPdxE_-ksJxHDU-21" edge="1">
                    <mxGeometry relative="1" as="geometry">
                        <mxPoint x="249" y="325" as="targetPoint"/>
                    </mxGeometry>
                </mxCell>
                <mxCell id="ZUB8ftVPdxE_-ksJxHDU-9" value="" style="ellipse;whiteSpace=wrap;html=1;aspect=fixed;rounded=0;strokeColor=#000000;fontColor=#FFD966;" parent="ZUB8ftVPdxE_-ksJxHDU-1" vertex="1">
                    <mxGeometry x="149" y="310" width="30" height="30" as="geometry"/>
                </mxCell>
                <mxCell id="ZUB8ftVPdxE_-ksJxHDU-10" value="Open Beans" style="text;html=1;strokeColor=none;fillColor=none;align=center;verticalAlign=middle;whiteSpace=wrap;rounded=0;fontColor=#000000;" parent="ZUB8ftVPdxE_-ksJxHDU-1" vertex="1">
                    <mxGeometry x="203" y="305" width="80" height="20" as="geometry"/>
                </mxCell>
                <mxCell id="ZUB8ftVPdxE_-ksJxHDU-11" style="rounded=0;orthogonalLoop=1;jettySize=auto;html=1;entryX=0;entryY=1;entryDx=0;entryDy=0;strokeColor=#000000;fontColor=#000000;" parent="ZUB8ftVPdxE_-ksJxHDU-1" source="ZUB8ftVPdxE_-ksJxHDU-12" target="ZUB8ftVPdxE_-ksJxHDU-21" edge="1">
                    <mxGeometry relative="1" as="geometry">
                        <mxPoint x="249" y="395" as="targetPoint"/>
                        <Array as="points">
                            <mxPoint x="280" y="400"/>
                        </Array>
                    </mxGeometry>
                </mxCell>
                <mxCell id="ZUB8ftVPdxE_-ksJxHDU-12" value="" style="ellipse;whiteSpace=wrap;html=1;aspect=fixed;rounded=0;strokeColor=#000000;fontColor=#FFD966;" parent="ZUB8ftVPdxE_-ksJxHDU-1" vertex="1">
                    <mxGeometry x="149" y="385" width="30" height="30" as="geometry"/>
                </mxCell>
                <mxCell id="ZUB8ftVPdxE_-ksJxHDU-13" value="Open Tomatoes" style="text;html=1;strokeColor=none;fillColor=none;align=center;verticalAlign=middle;whiteSpace=wrap;rounded=0;fontColor=#000000;" parent="ZUB8ftVPdxE_-ksJxHDU-1" vertex="1">
                    <mxGeometry x="205" y="374" width="80" height="20" as="geometry"/>
                </mxCell>
                <mxCell id="ZUB8ftVPdxE_-ksJxHDU-14" style="edgeStyle=none;rounded=0;orthogonalLoop=1;jettySize=auto;html=1;exitX=1;exitY=0.5;exitDx=0;exitDy=0;entryX=0.5;entryY=1;entryDx=0;entryDy=0;strokeColor=#000000;fontColor=#000000;" parent="ZUB8ftVPdxE_-ksJxHDU-1" source="ZUB8ftVPdxE_-ksJxHDU-15" target="ZUB8ftVPdxE_-ksJxHDU-21" edge="1">
                    <mxGeometry relative="1" as="geometry">
                        <Array as="points">
                            <mxPoint x="340" y="525"/>
                        </Array>
                    </mxGeometry>
                </mxCell>
                <mxCell id="ZUB8ftVPdxE_-ksJxHDU-15" value="" style="ellipse;whiteSpace=wrap;html=1;aspect=fixed;rounded=0;strokeColor=#000000;fontColor=#FFD966;" parent="ZUB8ftVPdxE_-ksJxHDU-1" vertex="1">
                    <mxGeometry x="260" y="509" width="30" height="30" as="geometry"/>
                </mxCell>
                <mxCell id="ZUB8ftVPdxE_-ksJxHDU-16" value="" style="ellipse;whiteSpace=wrap;html=1;aspect=fixed;rounded=0;strokeColor=#000000;fontColor=#FFD966;" parent="ZUB8ftVPdxE_-ksJxHDU-1" vertex="1">
                    <mxGeometry x="151" y="509" width="30" height="30" as="geometry"/>
                </mxCell>
                <mxCell id="ZUB8ftVPdxE_-ksJxHDU-17" value="0" style="text;html=1;strokeColor=none;fillColor=none;align=center;verticalAlign=middle;whiteSpace=wrap;rounded=0;fontColor=#000000;strokeWidth=2;" parent="ZUB8ftVPdxE_-ksJxHDU-1" vertex="1">
                    <mxGeometry x="208" y="255" width="40" height="20" as="geometry"/>
                </mxCell>
                <mxCell id="ZUB8ftVPdxE_-ksJxHDU-18" value="4h 4m" style="text;html=1;align=center;verticalAlign=middle;resizable=0;points=[];autosize=1;fontColor=#000000;" parent="ZUB8ftVPdxE_-ksJxHDU-1" vertex="1">
                    <mxGeometry x="211" y="324" width="50" height="20" as="geometry"/>
                </mxCell>
                <mxCell id="ZUB8ftVPdxE_-ksJxHDU-19" value="&lt;span&gt;4hr 4min&lt;/span&gt;" style="text;html=1;align=center;verticalAlign=middle;resizable=0;points=[];autosize=1;fontColor=#000000;" parent="ZUB8ftVPdxE_-ksJxHDU-1" vertex="1">
                    <mxGeometry x="210" y="397" width="60" height="20" as="geometry"/>
                </mxCell>
                <mxCell id="ZUB8ftVPdxE_-ksJxHDU-20" style="edgeStyle=none;rounded=0;orthogonalLoop=1;jettySize=auto;html=1;entryX=0;entryY=0.5;entryDx=0;entryDy=0;strokeColor=#000000;fontColor=#000000;strokeWidth=2;" parent="ZUB8ftVPdxE_-ksJxHDU-1" source="ZUB8ftVPdxE_-ksJxHDU-21" target="ZUB8ftVPdxE_-ksJxHDU-22" edge="1">
                    <mxGeometry relative="1" as="geometry"/>
                </mxCell>
                <mxCell id="ZUB8ftVPdxE_-ksJxHDU-21" value="" style="ellipse;whiteSpace=wrap;html=1;aspect=fixed;rounded=0;strokeColor=#000000;fontColor=#FFD966;strokeWidth=2;" parent="ZUB8ftVPdxE_-ksJxHDU-1" vertex="1">
                    <mxGeometry x="360" y="310" width="30" height="30" as="geometry"/>
                </mxCell>
                <mxCell id="ZUB8ftVPdxE_-ksJxHDU-22" value="" style="ellipse;whiteSpace=wrap;html=1;aspect=fixed;rounded=0;strokeColor=#000000;fontColor=#FFD966;strokeWidth=2;" parent="ZUB8ftVPdxE_-ksJxHDU-1" vertex="1">
                    <mxGeometry x="450" y="310" width="30" height="30" as="geometry"/>
                </mxCell>
                <mxCell id="ZUB8ftVPdxE_-ksJxHDU-23" style="edgeStyle=none;rounded=0;orthogonalLoop=1;jettySize=auto;html=1;entryX=0;entryY=0.5;entryDx=0;entryDy=0;strokeColor=#000000;fontColor=#000000;exitX=1;exitY=0.5;exitDx=0;exitDy=0;strokeWidth=2;" parent="ZUB8ftVPdxE_-ksJxHDU-1" source="ZUB8ftVPdxE_-ksJxHDU-22" target="ZUB8ftVPdxE_-ksJxHDU-25" edge="1">
                    <mxGeometry relative="1" as="geometry">
                        <mxPoint x="490" y="325" as="sourcePoint"/>
                    </mxGeometry>
                </mxCell>
                <mxCell id="ZUB8ftVPdxE_-ksJxHDU-24" style="edgeStyle=none;rounded=0;orthogonalLoop=1;jettySize=auto;html=1;entryX=0;entryY=0.5;entryDx=0;entryDy=0;strokeColor=#000000;fontColor=#000000;strokeWidth=2;" parent="ZUB8ftVPdxE_-ksJxHDU-1" source="ZUB8ftVPdxE_-ksJxHDU-25" target="ZUB8ftVPdxE_-ksJxHDU-26" edge="1">
                    <mxGeometry relative="1" as="geometry"/>
                </mxCell>
                <mxCell id="ZUB8ftVPdxE_-ksJxHDU-25" value="" style="ellipse;whiteSpace=wrap;html=1;aspect=fixed;rounded=0;strokeColor=#000000;fontColor=#FFD966;strokeWidth=2;" parent="ZUB8ftVPdxE_-ksJxHDU-1" vertex="1">
                    <mxGeometry x="550" y="310" width="30" height="30" as="geometry"/>
                </mxCell>
                <mxCell id="ZUB8ftVPdxE_-ksJxHDU-26" value="" style="ellipse;whiteSpace=wrap;html=1;aspect=fixed;rounded=0;strokeColor=#000000;fontColor=#FFD966;strokeWidth=2;" parent="ZUB8ftVPdxE_-ksJxHDU-1" vertex="1">
                    <mxGeometry x="650" y="310" width="30" height="30" as="geometry"/>
                </mxCell>
                <mxCell id="ZUB8ftVPdxE_-ksJxHDU-27" value="Brown Beef" style="text;html=1;strokeColor=none;fillColor=none;align=center;verticalAlign=middle;whiteSpace=wrap;rounded=0;fontColor=#000000;rotation=0;strokeWidth=2;" parent="ZUB8ftVPdxE_-ksJxHDU-1" vertex="1">
                    <mxGeometry x="285" y="235" width="80" height="20" as="geometry"/>
                </mxCell>
                <mxCell id="ZUB8ftVPdxE_-ksJxHDU-28" style="edgeStyle=none;rounded=0;orthogonalLoop=1;jettySize=auto;html=1;entryX=0;entryY=1;entryDx=0;entryDy=0;strokeColor=#000000;fontColor=#000000;" parent="ZUB8ftVPdxE_-ksJxHDU-1" source="ZUB8ftVPdxE_-ksJxHDU-29" target="ZUB8ftVPdxE_-ksJxHDU-25" edge="1">
                    <mxGeometry relative="1" as="geometry">
                        <Array as="points">
                            <mxPoint x="530" y="412"/>
                        </Array>
                    </mxGeometry>
                </mxCell>
                <mxCell id="ZUB8ftVPdxE_-ksJxHDU-29" value="" style="ellipse;whiteSpace=wrap;html=1;aspect=fixed;rounded=0;strokeColor=#000000;fontColor=#FFD966;" parent="ZUB8ftVPdxE_-ksJxHDU-1" vertex="1">
                    <mxGeometry x="420" y="397" width="30" height="30" as="geometry"/>
                </mxCell>
                <mxCell id="ZUB8ftVPdxE_-ksJxHDU-30" style="edgeStyle=none;rounded=0;orthogonalLoop=1;jettySize=auto;html=1;strokeColor=#000000;fontColor=#000000;entryX=0;entryY=0;entryDx=0;entryDy=0;" parent="ZUB8ftVPdxE_-ksJxHDU-1" source="ZUB8ftVPdxE_-ksJxHDU-37" target="ZUB8ftVPdxE_-ksJxHDU-15" edge="1">
                    <mxGeometry relative="1" as="geometry">
                        <mxPoint x="91" y="32.66025403784437" as="targetPoint"/>
                        <Array as="points">
                            <mxPoint x="250" y="470"/>
                        </Array>
                    </mxGeometry>
                </mxCell>
                <mxCell id="ZUB8ftVPdxE_-ksJxHDU-31" value="" style="group" parent="ZUB8ftVPdxE_-ksJxHDU-1" vertex="1" connectable="0">
                    <mxGeometry x="176" y="508" width="80" height="20" as="geometry"/>
                </mxCell>
                <mxCell id="ZUB8ftVPdxE_-ksJxHDU-32" style="edgeStyle=none;rounded=0;orthogonalLoop=1;jettySize=auto;html=1;entryX=0;entryY=0.5;entryDx=0;entryDy=0;strokeColor=#000000;fontColor=#000000;" parent="ZUB8ftVPdxE_-ksJxHDU-31" source="ZUB8ftVPdxE_-ksJxHDU-16" target="ZUB8ftVPdxE_-ksJxHDU-15" edge="1">
                    <mxGeometry relative="1" as="geometry"/>
                </mxCell>
                <mxCell id="ZUB8ftVPdxE_-ksJxHDU-33" value="Add Paprika" style="text;html=1;strokeColor=none;fillColor=none;align=center;verticalAlign=middle;whiteSpace=wrap;rounded=0;fontColor=#000000;" parent="ZUB8ftVPdxE_-ksJxHDU-31" vertex="1">
                    <mxGeometry width="80" height="20" as="geometry"/>
                </mxCell>
                <mxCell id="ZUB8ftVPdxE_-ksJxHDU-34" style="edgeStyle=none;rounded=0;orthogonalLoop=1;jettySize=auto;html=1;entryX=0;entryY=1;entryDx=0;entryDy=0;strokeColor=#000000;fontColor=#000000;" parent="ZUB8ftVPdxE_-ksJxHDU-1" source="ZUB8ftVPdxE_-ksJxHDU-35" target="ZUB8ftVPdxE_-ksJxHDU-15" edge="1">
                    <mxGeometry relative="1" as="geometry">
                        <Array as="points">
                            <mxPoint x="250" y="575"/>
                        </Array>
                    </mxGeometry>
                </mxCell>
                <mxCell id="ZUB8ftVPdxE_-ksJxHDU-35" value="" style="ellipse;whiteSpace=wrap;html=1;aspect=fixed;rounded=0;strokeColor=#000000;fontColor=#FFD966;" parent="ZUB8ftVPdxE_-ksJxHDU-1" vertex="1">
                    <mxGeometry x="151" y="560" width="30" height="30" as="geometry"/>
                </mxCell>
                <mxCell id="ZUB8ftVPdxE_-ksJxHDU-36" value="Add Garlic" style="text;html=1;strokeColor=none;fillColor=none;align=center;verticalAlign=middle;whiteSpace=wrap;rounded=0;fontColor=#000000;rotation=0;" parent="ZUB8ftVPdxE_-ksJxHDU-1" vertex="1">
                    <mxGeometry x="175" y="555" width="80" height="20" as="geometry"/>
                </mxCell>
                <mxCell id="ZUB8ftVPdxE_-ksJxHDU-37" value="" style="ellipse;whiteSpace=wrap;html=1;aspect=fixed;rounded=0;strokeColor=#000000;fontColor=#FFD966;" parent="ZUB8ftVPdxE_-ksJxHDU-1" vertex="1">
                    <mxGeometry x="150.36" y="455" width="30" height="30" as="geometry"/>
                </mxCell>
                <mxCell id="ZUB8ftVPdxE_-ksJxHDU-38" value="Add Chili powder" style="text;html=1;strokeColor=none;fillColor=none;align=center;verticalAlign=middle;whiteSpace=wrap;rounded=0;fontColor=#000000;rotation=0;" parent="ZUB8ftVPdxE_-ksJxHDU-1" vertex="1">
                    <mxGeometry x="168" y="445" width="80" height="20" as="geometry"/>
                </mxCell>
                <mxCell id="ZUB8ftVPdxE_-ksJxHDU-39" value="Combine Ingredients" style="text;html=1;strokeColor=none;fillColor=none;align=center;verticalAlign=middle;whiteSpace=wrap;rounded=0;fontColor=#000000;strokeWidth=2;" parent="ZUB8ftVPdxE_-ksJxHDU-1" vertex="1">
                    <mxGeometry x="380" y="297" width="80" height="20" as="geometry"/>
                </mxCell>
                <mxCell id="ZUB8ftVPdxE_-ksJxHDU-40" value="Simmer" style="text;html=1;strokeColor=none;fillColor=none;align=center;verticalAlign=middle;whiteSpace=wrap;rounded=0;fontColor=#000000;strokeWidth=2;" parent="ZUB8ftVPdxE_-ksJxHDU-1" vertex="1">
                    <mxGeometry x="470" y="300" width="80" height="20" as="geometry"/>
                </mxCell>
                <mxCell id="ZUB8ftVPdxE_-ksJxHDU-41" value="Serve" style="text;html=1;strokeColor=none;fillColor=none;align=center;verticalAlign=middle;whiteSpace=wrap;rounded=0;fontColor=#000000;strokeWidth=2;" parent="ZUB8ftVPdxE_-ksJxHDU-1" vertex="1">
                    <mxGeometry x="570" y="300" width="80" height="20" as="geometry"/>
                </mxCell>
                <mxCell id="ZUB8ftVPdxE_-ksJxHDU-42" value="Prepare Bowls&lt;br&gt;" style="text;html=1;strokeColor=none;fillColor=none;align=center;verticalAlign=middle;whiteSpace=wrap;rounded=0;fontColor=#000000;" parent="ZUB8ftVPdxE_-ksJxHDU-1" vertex="1">
                    <mxGeometry x="450" y="388" width="80" height="20" as="geometry"/>
                </mxCell>
                <mxCell id="ZUB8ftVPdxE_-ksJxHDU-43" style="edgeStyle=none;rounded=0;orthogonalLoop=1;jettySize=auto;html=1;entryX=0.5;entryY=1;entryDx=0;entryDy=0;strokeColor=#000000;fontColor=#000000;" parent="ZUB8ftVPdxE_-ksJxHDU-1" source="ZUB8ftVPdxE_-ksJxHDU-44" target="ZUB8ftVPdxE_-ksJxHDU-25" edge="1">
                    <mxGeometry relative="1" as="geometry">
                        <mxPoint x="554.3933982822018" y="384.99660171779817" as="targetPoint"/>
                        <Array as="points">
                            <mxPoint x="530" y="461.39"/>
                        </Array>
                    </mxGeometry>
                </mxCell>
                <mxCell id="ZUB8ftVPdxE_-ksJxHDU-44" value="" style="ellipse;whiteSpace=wrap;html=1;aspect=fixed;rounded=0;strokeColor=#000000;fontColor=#FFD966;" parent="ZUB8ftVPdxE_-ksJxHDU-1" vertex="1">
                    <mxGeometry x="420" y="446.39" width="30" height="30" as="geometry"/>
                </mxCell>
                <mxCell id="ZUB8ftVPdxE_-ksJxHDU-45" value="Prepare Spoons" style="text;html=1;strokeColor=none;fillColor=none;align=center;verticalAlign=middle;whiteSpace=wrap;rounded=0;fontColor=#000000;" parent="ZUB8ftVPdxE_-ksJxHDU-1" vertex="1">
                    <mxGeometry x="450" y="437.39" width="80" height="20" as="geometry"/>
                </mxCell>
                <mxCell id="ZUB8ftVPdxE_-ksJxHDU-46" value="4h 3m" style="text;html=1;strokeColor=none;fillColor=none;align=center;verticalAlign=middle;whiteSpace=wrap;rounded=0;fontColor=#000000;" parent="ZUB8ftVPdxE_-ksJxHDU-1" vertex="1">
                    <mxGeometry x="190" y="471" width="40" height="20" as="geometry"/>
                </mxCell>
                <mxCell id="ZUB8ftVPdxE_-ksJxHDU-47" value="4h 3m" style="text;html=1;strokeColor=none;fillColor=none;align=center;verticalAlign=middle;whiteSpace=wrap;rounded=0;fontColor=#000000;" parent="ZUB8ftVPdxE_-ksJxHDU-1" vertex="1">
                    <mxGeometry x="190" y="528" width="40" height="20" as="geometry"/>
                </mxCell>
                <mxCell id="ZUB8ftVPdxE_-ksJxHDU-48" value="4h 3m" style="text;html=1;strokeColor=none;fillColor=none;align=center;verticalAlign=middle;whiteSpace=wrap;rounded=0;fontColor=#000000;" parent="ZUB8ftVPdxE_-ksJxHDU-1" vertex="1">
                    <mxGeometry x="190" y="577" width="40" height="20" as="geometry"/>
                </mxCell>
                <mxCell id="ZUB8ftVPdxE_-ksJxHDU-49" value="0" style="text;html=1;strokeColor=none;fillColor=none;align=center;verticalAlign=middle;whiteSpace=wrap;rounded=0;fontColor=#000000;rotation=0;strokeWidth=2;" parent="ZUB8ftVPdxE_-ksJxHDU-1" vertex="1">
                    <mxGeometry x="300" y="255" width="40" height="20" as="geometry"/>
                </mxCell>
                <mxCell id="ZUB8ftVPdxE_-ksJxHDU-50" value="&lt;span&gt;0&lt;/span&gt;" style="text;html=1;align=center;verticalAlign=middle;resizable=0;points=[];autosize=1;fontColor=#000000;strokeWidth=2;" parent="ZUB8ftVPdxE_-ksJxHDU-1" vertex="1">
                    <mxGeometry x="410" y="325" width="20" height="20" as="geometry"/>
                </mxCell>
                <mxCell id="ZUB8ftVPdxE_-ksJxHDU-51" value="&lt;span&gt;0&lt;/span&gt;" style="text;html=1;align=center;verticalAlign=middle;resizable=0;points=[];autosize=1;fontColor=#000000;strokeWidth=2;" parent="ZUB8ftVPdxE_-ksJxHDU-1" vertex="1">
                    <mxGeometry x="500" y="324" width="20" height="20" as="geometry"/>
                </mxCell>
                <mxCell id="ZUB8ftVPdxE_-ksJxHDU-52" value="&lt;span&gt;4h 57m&lt;/span&gt;" style="text;html=1;align=center;verticalAlign=middle;resizable=0;points=[];autosize=1;fontColor=#000000;" parent="ZUB8ftVPdxE_-ksJxHDU-1" vertex="1">
                    <mxGeometry x="460" y="410" width="60" height="20" as="geometry"/>
                </mxCell>
                <mxCell id="ZUB8ftVPdxE_-ksJxHDU-53" value="&lt;span&gt;10min&lt;/span&gt;" style="text;html=1;align=center;verticalAlign=middle;resizable=0;points=[];autosize=1;fontColor=#000000;" parent="ZUB8ftVPdxE_-ksJxHDU-1" vertex="1">
                    <mxGeometry x="466" y="459" width="50" height="20" as="geometry"/>
                </mxCell>
                <mxCell id="ZUB8ftVPdxE_-ksJxHDU-54" value="Mix Spices" style="text;html=1;strokeColor=none;fillColor=none;align=center;verticalAlign=middle;whiteSpace=wrap;rounded=0;fontColor=#000000;" parent="ZUB8ftVPdxE_-ksJxHDU-1" vertex="1">
                    <mxGeometry x="290" y="500" width="50" height="20" as="geometry"/>
                </mxCell>
                <mxCell id="ZUB8ftVPdxE_-ksJxHDU-55" value="4m" style="text;html=1;strokeColor=none;fillColor=none;align=center;verticalAlign=middle;whiteSpace=wrap;rounded=0;fontColor=#000000;" parent="ZUB8ftVPdxE_-ksJxHDU-1" vertex="1">
                    <mxGeometry x="290" y="525" width="50" height="20" as="geometry"/>
                </mxCell>
            </root>
        </mxGraphModel>
    </diagram>
    <diagram id="H9CcOWjjJWy0-Qvh19_h" name="Why Arrow Graph">
        <mxGraphModel dx="1422" dy="746" grid="1" gridSize="10" guides="1" tooltips="1" connect="1" arrows="1" fold="1" page="1" pageScale="1" pageWidth="850" pageHeight="1100" math="0" shadow="0">
            <root>
                <mxCell id="Svm0KA5cfJ0at4KvARIh-0"/>
                <mxCell id="Svm0KA5cfJ0at4KvARIh-1" parent="Svm0KA5cfJ0at4KvARIh-0"/>
                <mxCell id="aqC_XX8Bfd4DPLwOw9Va-2" value="&lt;font style=&quot;font-size: 24px&quot;&gt;&lt;font color=&quot;#000000&quot;&gt;Many to Many&lt;br&gt;Activity&amp;nbsp;&lt;/font&gt;&lt;font color=&quot;#000000&quot;&gt;Dependency&lt;/font&gt;&lt;/font&gt;" style="text;html=1;strokeColor=none;fillColor=none;align=center;verticalAlign=middle;whiteSpace=wrap;rounded=0;fontColor=#FFD966;" parent="Svm0KA5cfJ0at4KvARIh-1" vertex="1">
                    <mxGeometry x="260" y="170" width="320" height="50" as="geometry"/>
                </mxCell>
                <mxCell id="aqC_XX8Bfd4DPLwOw9Va-40" value="" style="group;" parent="Svm0KA5cfJ0at4KvARIh-1" vertex="1" connectable="0">
                    <mxGeometry x="220" y="220" width="180" height="160" as="geometry"/>
                </mxCell>
                <mxCell id="aqC_XX8Bfd4DPLwOw9Va-0" value="&lt;font style=&quot;font-size: 20px&quot;&gt;Activities as Nodes&lt;/font&gt;" style="text;html=1;strokeColor=none;fillColor=none;align=center;verticalAlign=middle;whiteSpace=wrap;rounded=0;" parent="aqC_XX8Bfd4DPLwOw9Va-40" vertex="1">
                    <mxGeometry width="180" height="50" as="geometry"/>
                </mxCell>
                <mxCell id="aqC_XX8Bfd4DPLwOw9Va-3" value="&lt;font&gt;1&lt;/font&gt;" style="ellipse;whiteSpace=wrap;html=1;aspect=fixed;rounded=0;" parent="aqC_XX8Bfd4DPLwOw9Va-40" vertex="1">
                    <mxGeometry x="10" y="50" width="30" height="30" as="geometry"/>
                </mxCell>
                <mxCell id="aqC_XX8Bfd4DPLwOw9Va-4" value="2" style="ellipse;whiteSpace=wrap;html=1;aspect=fixed;rounded=0;" parent="aqC_XX8Bfd4DPLwOw9Va-40" vertex="1">
                    <mxGeometry x="10" y="90" width="30" height="30" as="geometry"/>
                </mxCell>
                <mxCell id="aqC_XX8Bfd4DPLwOw9Va-31" style="edgeStyle=none;rounded=0;orthogonalLoop=1;jettySize=auto;html=1;exitX=1;exitY=0.5;exitDx=0;exitDy=0;" parent="aqC_XX8Bfd4DPLwOw9Va-40" source="aqC_XX8Bfd4DPLwOw9Va-5" edge="1">
                    <mxGeometry relative="1" as="geometry">
                        <mxPoint x="130" y="70" as="targetPoint"/>
                    </mxGeometry>
                </mxCell>
                <mxCell id="aqC_XX8Bfd4DPLwOw9Va-5" value="3" style="ellipse;whiteSpace=wrap;html=1;aspect=fixed;rounded=0;" parent="aqC_XX8Bfd4DPLwOw9Va-40" vertex="1">
                    <mxGeometry x="10" y="130" width="30" height="30" as="geometry"/>
                </mxCell>
                <mxCell id="aqC_XX8Bfd4DPLwOw9Va-6" value="4" style="ellipse;whiteSpace=wrap;html=1;aspect=fixed;rounded=0;" parent="aqC_XX8Bfd4DPLwOw9Va-40" vertex="1">
                    <mxGeometry x="130" y="50" width="30" height="30" as="geometry"/>
                </mxCell>
                <mxCell id="aqC_XX8Bfd4DPLwOw9Va-24" style="edgeStyle=orthogonalEdgeStyle;rounded=0;orthogonalLoop=1;jettySize=auto;html=1;exitX=1;exitY=0.5;exitDx=0;exitDy=0;entryX=0;entryY=0.5;entryDx=0;entryDy=0;" parent="aqC_XX8Bfd4DPLwOw9Va-40" source="aqC_XX8Bfd4DPLwOw9Va-3" target="aqC_XX8Bfd4DPLwOw9Va-6" edge="1">
                    <mxGeometry relative="1" as="geometry"/>
                </mxCell>
                <mxCell id="aqC_XX8Bfd4DPLwOw9Va-27" style="edgeStyle=none;rounded=0;orthogonalLoop=1;jettySize=auto;html=1;exitX=1;exitY=0.5;exitDx=0;exitDy=0;entryX=0;entryY=0.5;entryDx=0;entryDy=0;" parent="aqC_XX8Bfd4DPLwOw9Va-40" source="aqC_XX8Bfd4DPLwOw9Va-4" target="aqC_XX8Bfd4DPLwOw9Va-6" edge="1">
                    <mxGeometry relative="1" as="geometry"/>
                </mxCell>
                <mxCell id="aqC_XX8Bfd4DPLwOw9Va-8" value="5" style="ellipse;whiteSpace=wrap;html=1;aspect=fixed;rounded=0;" parent="aqC_XX8Bfd4DPLwOw9Va-40" vertex="1">
                    <mxGeometry x="130" y="90" width="30" height="30" as="geometry"/>
                </mxCell>
                <mxCell id="aqC_XX8Bfd4DPLwOw9Va-25" style="rounded=0;orthogonalLoop=1;jettySize=auto;html=1;exitX=1;exitY=0.5;exitDx=0;exitDy=0;entryX=0;entryY=0.5;entryDx=0;entryDy=0;" parent="aqC_XX8Bfd4DPLwOw9Va-40" source="aqC_XX8Bfd4DPLwOw9Va-3" target="aqC_XX8Bfd4DPLwOw9Va-8" edge="1">
                    <mxGeometry relative="1" as="geometry"/>
                </mxCell>
                <mxCell id="aqC_XX8Bfd4DPLwOw9Va-29" style="edgeStyle=none;rounded=0;orthogonalLoop=1;jettySize=auto;html=1;exitX=1;exitY=0.5;exitDx=0;exitDy=0;entryX=0;entryY=0.5;entryDx=0;entryDy=0;" parent="aqC_XX8Bfd4DPLwOw9Va-40" source="aqC_XX8Bfd4DPLwOw9Va-4" target="aqC_XX8Bfd4DPLwOw9Va-8" edge="1">
                    <mxGeometry relative="1" as="geometry"/>
                </mxCell>
                <mxCell id="aqC_XX8Bfd4DPLwOw9Va-32" style="edgeStyle=none;rounded=0;orthogonalLoop=1;jettySize=auto;html=1;exitX=1;exitY=0.5;exitDx=0;exitDy=0;entryX=0;entryY=0.5;entryDx=0;entryDy=0;strokeColor=#000000;" parent="aqC_XX8Bfd4DPLwOw9Va-40" source="aqC_XX8Bfd4DPLwOw9Va-5" target="aqC_XX8Bfd4DPLwOw9Va-8" edge="1">
                    <mxGeometry relative="1" as="geometry"/>
                </mxCell>
                <mxCell id="aqC_XX8Bfd4DPLwOw9Va-9" value="6" style="ellipse;whiteSpace=wrap;html=1;aspect=fixed;rounded=0;" parent="aqC_XX8Bfd4DPLwOw9Va-40" vertex="1">
                    <mxGeometry x="130" y="130" width="30" height="30" as="geometry"/>
                </mxCell>
                <mxCell id="aqC_XX8Bfd4DPLwOw9Va-26" style="edgeStyle=none;rounded=0;orthogonalLoop=1;jettySize=auto;html=1;exitX=1;exitY=0.5;exitDx=0;exitDy=0;entryX=0;entryY=0.5;entryDx=0;entryDy=0;" parent="aqC_XX8Bfd4DPLwOw9Va-40" source="aqC_XX8Bfd4DPLwOw9Va-3" target="aqC_XX8Bfd4DPLwOw9Va-9" edge="1">
                    <mxGeometry relative="1" as="geometry"/>
                </mxCell>
                <mxCell id="aqC_XX8Bfd4DPLwOw9Va-30" style="edgeStyle=none;rounded=0;orthogonalLoop=1;jettySize=auto;html=1;exitX=1;exitY=0.5;exitDx=0;exitDy=0;entryX=0;entryY=0.5;entryDx=0;entryDy=0;" parent="aqC_XX8Bfd4DPLwOw9Va-40" source="aqC_XX8Bfd4DPLwOw9Va-4" target="aqC_XX8Bfd4DPLwOw9Va-9" edge="1">
                    <mxGeometry relative="1" as="geometry"/>
                </mxCell>
                <mxCell id="aqC_XX8Bfd4DPLwOw9Va-33" style="edgeStyle=none;rounded=0;orthogonalLoop=1;jettySize=auto;html=1;exitX=1;exitY=0.5;exitDx=0;exitDy=0;entryX=0;entryY=0.5;entryDx=0;entryDy=0;strokeColor=#000000;" parent="aqC_XX8Bfd4DPLwOw9Va-40" source="aqC_XX8Bfd4DPLwOw9Va-5" target="aqC_XX8Bfd4DPLwOw9Va-9" edge="1">
                    <mxGeometry relative="1" as="geometry"/>
                </mxCell>
                <mxCell id="aqC_XX8Bfd4DPLwOw9Va-44" value="" style="group;container=1;" parent="Svm0KA5cfJ0at4KvARIh-1" vertex="1" connectable="0">
                    <mxGeometry x="425" y="220" width="170" height="160" as="geometry"/>
                </mxCell>
                <mxCell id="aqC_XX8Bfd4DPLwOw9Va-41" value="" style="group;container=1;" parent="aqC_XX8Bfd4DPLwOw9Va-44" vertex="1" connectable="0">
                    <mxGeometry width="170" height="160" as="geometry"/>
                </mxCell>
                <mxCell id="aqC_XX8Bfd4DPLwOw9Va-1" value="&lt;font style=&quot;font-size: 20px&quot;&gt;Activities as Edges&lt;/font&gt;" style="text;html=1;strokeColor=none;fillColor=none;align=center;verticalAlign=middle;whiteSpace=wrap;rounded=0;" parent="aqC_XX8Bfd4DPLwOw9Va-41" vertex="1">
                    <mxGeometry width="170" height="50" as="geometry"/>
                </mxCell>
                <mxCell id="aqC_XX8Bfd4DPLwOw9Va-16" value="" style="ellipse;whiteSpace=wrap;html=1;aspect=fixed;rounded=0;strokeColor=#000000;" parent="aqC_XX8Bfd4DPLwOw9Va-41" vertex="1">
                    <mxGeometry x="10" y="50" width="30" height="30" as="geometry"/>
                </mxCell>
                <mxCell id="aqC_XX8Bfd4DPLwOw9Va-35" value="2" style="edgeStyle=none;rounded=0;orthogonalLoop=1;jettySize=auto;html=1;exitX=1;exitY=0.5;exitDx=0;exitDy=0;strokeColor=#000000;" parent="aqC_XX8Bfd4DPLwOw9Va-41" source="aqC_XX8Bfd4DPLwOw9Va-17" edge="1">
                    <mxGeometry relative="1" as="geometry">
                        <mxPoint x="70" y="105" as="targetPoint"/>
                    </mxGeometry>
                </mxCell>
                <mxCell id="aqC_XX8Bfd4DPLwOw9Va-17" value="" style="ellipse;whiteSpace=wrap;html=1;aspect=fixed;rounded=0;strokeColor=#000000;" parent="aqC_XX8Bfd4DPLwOw9Va-41" vertex="1">
                    <mxGeometry x="10" y="90" width="30" height="30" as="geometry"/>
                </mxCell>
                <mxCell id="aqC_XX8Bfd4DPLwOw9Va-18" value="" style="ellipse;whiteSpace=wrap;html=1;aspect=fixed;rounded=0;strokeColor=#000000;" parent="aqC_XX8Bfd4DPLwOw9Va-41" vertex="1">
                    <mxGeometry x="10" y="130" width="30" height="30" as="geometry"/>
                </mxCell>
                <mxCell id="aqC_XX8Bfd4DPLwOw9Va-19" value="" style="ellipse;whiteSpace=wrap;html=1;aspect=fixed;rounded=0;strokeColor=#000000;" parent="aqC_XX8Bfd4DPLwOw9Va-41" vertex="1">
                    <mxGeometry x="130" y="50" width="30" height="30" as="geometry"/>
                </mxCell>
                <mxCell id="aqC_XX8Bfd4DPLwOw9Va-20" value="" style="ellipse;whiteSpace=wrap;html=1;aspect=fixed;rounded=0;strokeColor=#000000;" parent="aqC_XX8Bfd4DPLwOw9Va-41" vertex="1">
                    <mxGeometry x="130" y="90" width="30" height="30" as="geometry"/>
                </mxCell>
                <mxCell id="aqC_XX8Bfd4DPLwOw9Va-21" value="" style="ellipse;whiteSpace=wrap;html=1;aspect=fixed;rounded=0;strokeColor=#000000;" parent="aqC_XX8Bfd4DPLwOw9Va-41" vertex="1">
                    <mxGeometry x="130" y="130" width="30" height="30" as="geometry"/>
                </mxCell>
                <mxCell id="aqC_XX8Bfd4DPLwOw9Va-37" value="4" style="edgeStyle=none;rounded=0;orthogonalLoop=1;jettySize=auto;html=1;exitX=1;exitY=0;exitDx=0;exitDy=0;entryX=0;entryY=0.5;entryDx=0;entryDy=0;strokeColor=#000000;" parent="aqC_XX8Bfd4DPLwOw9Va-41" source="aqC_XX8Bfd4DPLwOw9Va-22" target="aqC_XX8Bfd4DPLwOw9Va-19" edge="1">
                    <mxGeometry relative="1" as="geometry"/>
                </mxCell>
                <mxCell id="aqC_XX8Bfd4DPLwOw9Va-38" value="5" style="edgeStyle=none;rounded=0;orthogonalLoop=1;jettySize=auto;html=1;exitX=1;exitY=0.5;exitDx=0;exitDy=0;entryX=0;entryY=0.5;entryDx=0;entryDy=0;strokeColor=#000000;" parent="aqC_XX8Bfd4DPLwOw9Va-41" source="aqC_XX8Bfd4DPLwOw9Va-22" target="aqC_XX8Bfd4DPLwOw9Va-20" edge="1">
                    <mxGeometry relative="1" as="geometry"/>
                </mxCell>
                <mxCell id="aqC_XX8Bfd4DPLwOw9Va-39" value="6" style="edgeStyle=none;rounded=0;orthogonalLoop=1;jettySize=auto;html=1;exitX=1;exitY=1;exitDx=0;exitDy=0;entryX=0;entryY=0.5;entryDx=0;entryDy=0;strokeColor=#000000;" parent="aqC_XX8Bfd4DPLwOw9Va-41" source="aqC_XX8Bfd4DPLwOw9Va-22" target="aqC_XX8Bfd4DPLwOw9Va-21" edge="1">
                    <mxGeometry relative="1" as="geometry"/>
                </mxCell>
                <mxCell id="aqC_XX8Bfd4DPLwOw9Va-22" value="" style="ellipse;whiteSpace=wrap;html=1;aspect=fixed;rounded=0;strokeColor=#000000;" parent="aqC_XX8Bfd4DPLwOw9Va-41" vertex="1">
                    <mxGeometry x="70" y="90" width="30" height="30" as="geometry"/>
                </mxCell>
                <mxCell id="aqC_XX8Bfd4DPLwOw9Va-34" value="1" style="edgeStyle=none;rounded=0;orthogonalLoop=1;jettySize=auto;html=1;exitX=1;exitY=0.5;exitDx=0;exitDy=0;entryX=0;entryY=0;entryDx=0;entryDy=0;strokeColor=#000000;" parent="aqC_XX8Bfd4DPLwOw9Va-41" source="aqC_XX8Bfd4DPLwOw9Va-16" target="aqC_XX8Bfd4DPLwOw9Va-22" edge="1">
                    <mxGeometry relative="1" as="geometry"/>
                </mxCell>
                <mxCell id="aqC_XX8Bfd4DPLwOw9Va-36" value="3" style="edgeStyle=none;rounded=0;orthogonalLoop=1;jettySize=auto;html=1;exitX=1;exitY=0.5;exitDx=0;exitDy=0;strokeColor=#000000;entryX=0;entryY=1;entryDx=0;entryDy=0;" parent="aqC_XX8Bfd4DPLwOw9Va-41" source="aqC_XX8Bfd4DPLwOw9Va-18" target="aqC_XX8Bfd4DPLwOw9Va-22" edge="1">
                    <mxGeometry relative="1" as="geometry">
                        <mxPoint x="70" y="110" as="targetPoint"/>
                    </mxGeometry>
                </mxCell>
            </root>
        </mxGraphModel>
    </diagram>
    <diagram id="U6bm8-Z1X6w5ICAbCP_v" name="Chili Sub-critical">
        <mxGraphModel dx="1422" dy="746" grid="1" gridSize="10" guides="1" tooltips="1" connect="1" arrows="1" fold="1" page="1" pageScale="1" pageWidth="850" pageHeight="1100" math="0" shadow="0">
            <root>
                <mxCell id="Oarrd36FdYlei2pBg1Ru-0"/>
                <mxCell id="Oarrd36FdYlei2pBg1Ru-1" parent="Oarrd36FdYlei2pBg1Ru-0"/>
                <mxCell id="ciQo2ol6Sp04skjthSJN-0" value="&lt;font color=&quot;#000000&quot; style=&quot;font-size: 28px&quot;&gt;Serving Chili (&lt;/font&gt;&lt;span style=&quot;color: rgb(0 , 0 , 0) ; font-size: 28px&quot;&gt;Sub-Critical)&lt;/span&gt;" style="text;html=1;strokeColor=none;fillColor=none;align=center;verticalAlign=middle;whiteSpace=wrap;rounded=0;fontColor=#FFD966;" parent="Oarrd36FdYlei2pBg1Ru-1" vertex="1">
                    <mxGeometry x="240" y="240" width="340" height="20" as="geometry"/>
                </mxCell>
                <mxCell id="ciQo2ol6Sp04skjthSJN-1" style="edgeStyle=none;rounded=0;orthogonalLoop=1;jettySize=auto;html=1;entryX=0;entryY=0.5;entryDx=0;entryDy=0;strokeColor=#000000;fontColor=#000000;" parent="Oarrd36FdYlei2pBg1Ru-1" target="ciQo2ol6Sp04skjthSJN-4" edge="1">
                    <mxGeometry relative="1" as="geometry">
                        <mxPoint x="53" y="325" as="sourcePoint"/>
                    </mxGeometry>
                </mxCell>
                <mxCell id="ciQo2ol6Sp04skjthSJN-2" value="" style="ellipse;whiteSpace=wrap;html=1;aspect=fixed;rounded=0;strokeColor=#000000;fontColor=#FFD966;" parent="Oarrd36FdYlei2pBg1Ru-1" vertex="1">
                    <mxGeometry x="50" y="310" width="30" height="30" as="geometry"/>
                </mxCell>
                <mxCell id="ciQo2ol6Sp04skjthSJN-4" value="" style="ellipse;whiteSpace=wrap;html=1;aspect=fixed;rounded=0;strokeColor=#000000;fontColor=#FFD966;" parent="Oarrd36FdYlei2pBg1Ru-1" vertex="1">
                    <mxGeometry x="135" y="310" width="30" height="30" as="geometry"/>
                </mxCell>
                <mxCell id="ciQo2ol6Sp04skjthSJN-5" value="Thaw Ground Beef" style="text;html=1;strokeColor=none;fillColor=none;align=center;verticalAlign=middle;whiteSpace=wrap;rounded=0;fontColor=#000000;" parent="Oarrd36FdYlei2pBg1Ru-1" vertex="1">
                    <mxGeometry x="63" y="300" width="80" height="20" as="geometry"/>
                </mxCell>
                <mxCell id="ciQo2ol6Sp04skjthSJN-8" value="Open Beans" style="text;html=1;strokeColor=none;fillColor=none;align=center;verticalAlign=middle;whiteSpace=wrap;rounded=0;fontColor=#000000;" parent="Oarrd36FdYlei2pBg1Ru-1" vertex="1">
                    <mxGeometry x="245" y="300" width="50" height="20" as="geometry"/>
                </mxCell>
                <mxCell id="ciQo2ol6Sp04skjthSJN-15" value="4hr" style="text;html=1;strokeColor=none;fillColor=none;align=center;verticalAlign=middle;whiteSpace=wrap;rounded=0;fontColor=#000000;" parent="Oarrd36FdYlei2pBg1Ru-1" vertex="1">
                    <mxGeometry x="81" y="325" width="40" height="20" as="geometry"/>
                </mxCell>
                <mxCell id="ciQo2ol6Sp04skjthSJN-16" value="&lt;span&gt;1min&lt;/span&gt;" style="text;html=1;align=center;verticalAlign=middle;resizable=0;points=[];autosize=1;fontColor=#000000;" parent="Oarrd36FdYlei2pBg1Ru-1" vertex="1">
                    <mxGeometry x="250" y="325" width="40" height="20" as="geometry"/>
                </mxCell>
                <mxCell id="ciQo2ol6Sp04skjthSJN-18" style="edgeStyle=none;rounded=0;orthogonalLoop=1;jettySize=auto;html=1;entryX=0;entryY=0.5;entryDx=0;entryDy=0;strokeColor=#000000;fontColor=#000000;" parent="Oarrd36FdYlei2pBg1Ru-1" target="ciQo2ol6Sp04skjthSJN-20" edge="1">
                    <mxGeometry relative="1" as="geometry">
                        <mxPoint x="380" y="325" as="sourcePoint"/>
                    </mxGeometry>
                </mxCell>
                <mxCell id="ciQo2ol6Sp04skjthSJN-63" style="edgeStyle=none;rounded=0;orthogonalLoop=1;jettySize=auto;html=1;exitX=1;exitY=0.5;exitDx=0;exitDy=0;entryX=0.3;entryY=0.95;entryDx=0;entryDy=0;entryPerimeter=0;strokeColor=#000000;fontColor=#000000;" parent="Oarrd36FdYlei2pBg1Ru-1" source="ciQo2ol6Sp04skjthSJN-19" target="ciQo2ol6Sp04skjthSJN-61" edge="1">
                    <mxGeometry relative="1" as="geometry"/>
                </mxCell>
                <mxCell id="ciQo2ol6Sp04skjthSJN-19" value="" style="ellipse;whiteSpace=wrap;html=1;aspect=fixed;rounded=0;strokeColor=#000000;fontColor=#FFD966;" parent="Oarrd36FdYlei2pBg1Ru-1" vertex="1">
                    <mxGeometry x="300" y="310" width="30" height="30" as="geometry"/>
                </mxCell>
                <mxCell id="ciQo2ol6Sp04skjthSJN-20" value="" style="ellipse;whiteSpace=wrap;html=1;aspect=fixed;rounded=0;strokeColor=#000000;fontColor=#FFD966;" parent="Oarrd36FdYlei2pBg1Ru-1" vertex="1">
                    <mxGeometry x="450" y="310" width="30" height="30" as="geometry"/>
                </mxCell>
                <mxCell id="ciQo2ol6Sp04skjthSJN-21" style="edgeStyle=none;rounded=0;orthogonalLoop=1;jettySize=auto;html=1;entryX=0;entryY=0.5;entryDx=0;entryDy=0;strokeColor=#000000;fontColor=#000000;exitX=1;exitY=0.5;exitDx=0;exitDy=0;" parent="Oarrd36FdYlei2pBg1Ru-1" source="ciQo2ol6Sp04skjthSJN-20" target="ciQo2ol6Sp04skjthSJN-27" edge="1">
                    <mxGeometry relative="1" as="geometry">
                        <mxPoint x="490" y="325" as="sourcePoint"/>
                    </mxGeometry>
                </mxCell>
                <mxCell id="ciQo2ol6Sp04skjthSJN-22" style="edgeStyle=none;rounded=0;orthogonalLoop=1;jettySize=auto;html=1;entryX=0;entryY=0.5;entryDx=0;entryDy=0;strokeColor=#000000;fontColor=#000000;" parent="Oarrd36FdYlei2pBg1Ru-1" source="ciQo2ol6Sp04skjthSJN-23" target="ciQo2ol6Sp04skjthSJN-24" edge="1">
                    <mxGeometry relative="1" as="geometry"/>
                </mxCell>
                <mxCell id="ciQo2ol6Sp04skjthSJN-23" value="" style="ellipse;whiteSpace=wrap;html=1;aspect=fixed;rounded=0;strokeColor=#000000;fontColor=#FFD966;" parent="Oarrd36FdYlei2pBg1Ru-1" vertex="1">
                    <mxGeometry x="618" y="310" width="30" height="30" as="geometry"/>
                </mxCell>
                <mxCell id="ciQo2ol6Sp04skjthSJN-24" value="" style="ellipse;whiteSpace=wrap;html=1;aspect=fixed;rounded=0;strokeColor=#000000;fontColor=#FFD966;" parent="Oarrd36FdYlei2pBg1Ru-1" vertex="1">
                    <mxGeometry x="690" y="310" width="30" height="30" as="geometry"/>
                </mxCell>
                <mxCell id="ciQo2ol6Sp04skjthSJN-25" value="Brown Beef" style="text;html=1;strokeColor=none;fillColor=none;align=center;verticalAlign=middle;whiteSpace=wrap;rounded=0;fontColor=#000000;rotation=0;" parent="Oarrd36FdYlei2pBg1Ru-1" vertex="1">
                    <mxGeometry x="160" y="303" width="52" height="20" as="geometry"/>
                </mxCell>
                <mxCell id="ciQo2ol6Sp04skjthSJN-27" value="" style="ellipse;whiteSpace=wrap;html=1;aspect=fixed;rounded=0;strokeColor=#000000;fontColor=#FFD966;" parent="Oarrd36FdYlei2pBg1Ru-1" vertex="1">
                    <mxGeometry x="530" y="310" width="30" height="30" as="geometry"/>
                </mxCell>
                <mxCell id="ciQo2ol6Sp04skjthSJN-37" value="Combine Ingredients" style="text;html=1;strokeColor=none;fillColor=none;align=center;verticalAlign=middle;whiteSpace=wrap;rounded=0;fontColor=#000000;" parent="Oarrd36FdYlei2pBg1Ru-1" vertex="1">
                    <mxGeometry x="380" y="300" width="80" height="20" as="geometry"/>
                </mxCell>
                <mxCell id="ciQo2ol6Sp04skjthSJN-38" value="Simmer" style="text;html=1;strokeColor=none;fillColor=none;align=center;verticalAlign=middle;whiteSpace=wrap;rounded=0;fontColor=#000000;" parent="Oarrd36FdYlei2pBg1Ru-1" vertex="1">
                    <mxGeometry x="464" y="303" width="80" height="20" as="geometry"/>
                </mxCell>
                <mxCell id="ciQo2ol6Sp04skjthSJN-39" value="Serve" style="text;html=1;strokeColor=none;fillColor=none;align=center;verticalAlign=middle;whiteSpace=wrap;rounded=0;fontColor=#000000;" parent="Oarrd36FdYlei2pBg1Ru-1" vertex="1">
                    <mxGeometry x="627" y="304" width="80" height="20" as="geometry"/>
                </mxCell>
                <mxCell id="ciQo2ol6Sp04skjthSJN-41" style="edgeStyle=none;rounded=0;orthogonalLoop=1;jettySize=auto;html=1;entryX=0;entryY=0.5;entryDx=0;entryDy=0;strokeColor=#000000;fontColor=#000000;exitX=1;exitY=0.5;exitDx=0;exitDy=0;" parent="Oarrd36FdYlei2pBg1Ru-1" source="ciQo2ol6Sp04skjthSJN-27" target="ciQo2ol6Sp04skjthSJN-23" edge="1">
                    <mxGeometry relative="1" as="geometry">
                        <mxPoint x="554.3933982822018" y="384.99660171779817" as="targetPoint"/>
                        <Array as="points"/>
                        <mxPoint x="450" y="461.3899999999999" as="sourcePoint"/>
                    </mxGeometry>
                </mxCell>
                <mxCell id="ciQo2ol6Sp04skjthSJN-43" value="Prepare Spoons" style="text;html=1;strokeColor=none;fillColor=none;align=center;verticalAlign=middle;whiteSpace=wrap;rounded=0;fontColor=#000000;" parent="Oarrd36FdYlei2pBg1Ru-1" vertex="1">
                    <mxGeometry x="547" y="300" width="80" height="20" as="geometry"/>
                </mxCell>
                <mxCell id="ciQo2ol6Sp04skjthSJN-47" value="5min" style="text;html=1;strokeColor=none;fillColor=none;align=center;verticalAlign=middle;whiteSpace=wrap;rounded=0;fontColor=#000000;rotation=0;" parent="Oarrd36FdYlei2pBg1Ru-1" vertex="1">
                    <mxGeometry x="169" y="325" width="40" height="20" as="geometry"/>
                </mxCell>
                <mxCell id="ciQo2ol6Sp04skjthSJN-48" value="&lt;span&gt;2min&lt;/span&gt;" style="text;html=1;align=center;verticalAlign=middle;resizable=0;points=[];autosize=1;fontColor=#000000;" parent="Oarrd36FdYlei2pBg1Ru-1" vertex="1">
                    <mxGeometry x="400" y="325" width="40" height="20" as="geometry"/>
                </mxCell>
                <mxCell id="ciQo2ol6Sp04skjthSJN-49" value="&lt;span&gt;1h&lt;/span&gt;" style="text;html=1;align=center;verticalAlign=middle;resizable=0;points=[];autosize=1;fontColor=#000000;" parent="Oarrd36FdYlei2pBg1Ru-1" vertex="1">
                    <mxGeometry x="484" y="323" width="30" height="20" as="geometry"/>
                </mxCell>
                <mxCell id="ciQo2ol6Sp04skjthSJN-51" value="&lt;span&gt;10min&lt;/span&gt;" style="text;html=1;align=center;verticalAlign=middle;resizable=0;points=[];autosize=1;fontColor=#000000;" parent="Oarrd36FdYlei2pBg1Ru-1" vertex="1">
                    <mxGeometry x="562" y="325" width="50" height="20" as="geometry"/>
                </mxCell>
                <mxCell id="ciQo2ol6Sp04skjthSJN-57" style="edgeStyle=none;rounded=0;orthogonalLoop=1;jettySize=auto;html=1;exitX=1;exitY=0.5;exitDx=0;exitDy=0;entryX=0;entryY=0.5;entryDx=0;entryDy=0;strokeColor=#000000;fontColor=#000000;" parent="Oarrd36FdYlei2pBg1Ru-1" source="ciQo2ol6Sp04skjthSJN-7" target="ciQo2ol6Sp04skjthSJN-19" edge="1">
                    <mxGeometry relative="1" as="geometry"/>
                </mxCell>
                <mxCell id="ciQo2ol6Sp04skjthSJN-7" value="" style="ellipse;whiteSpace=wrap;html=1;aspect=fixed;rounded=0;strokeColor=#000000;fontColor=#FFD966;" parent="Oarrd36FdYlei2pBg1Ru-1" vertex="1">
                    <mxGeometry x="220" y="310" width="30" height="30" as="geometry"/>
                </mxCell>
                <mxCell id="ciQo2ol6Sp04skjthSJN-54" style="edgeStyle=none;rounded=0;orthogonalLoop=1;jettySize=auto;html=1;exitX=1;exitY=0.5;exitDx=0;exitDy=0;strokeColor=#000000;fontColor=#000000;" parent="Oarrd36FdYlei2pBg1Ru-1" source="ciQo2ol6Sp04skjthSJN-4" target="ciQo2ol6Sp04skjthSJN-7" edge="1">
                    <mxGeometry relative="1" as="geometry">
                        <Array as="points"/>
                        <mxPoint x="165" y="325" as="sourcePoint"/>
                        <mxPoint x="280" y="325" as="targetPoint"/>
                    </mxGeometry>
                </mxCell>
                <mxCell id="ciQo2ol6Sp04skjthSJN-61" value="&lt;font style=&quot;font-size: 25px&quot;&gt;&amp;nbsp;...&lt;/font&gt;" style="text;html=1;align=center;verticalAlign=middle;resizable=0;points=[];autosize=1;fontColor=#000000;" parent="Oarrd36FdYlei2pBg1Ru-1" vertex="1">
                    <mxGeometry x="340" y="306" width="40" height="20" as="geometry"/>
                </mxCell>
            </root>
        </mxGraphModel>
    </diagram>
    <diagram id="NwAjl5MXuDIsBssAdibv" name="Compressible Graph">
        <mxGraphModel dx="1422" dy="746" grid="1" gridSize="10" guides="1" tooltips="1" connect="1" arrows="1" fold="1" page="1" pageScale="1" pageWidth="850" pageHeight="1100" math="0" shadow="0">
            <root>
                <mxCell id="0m8K6tq2gEUN4jEafZAz-0"/>
                <mxCell id="0m8K6tq2gEUN4jEafZAz-1" parent="0m8K6tq2gEUN4jEafZAz-0"/>
                <mxCell id="J7fMATsGPXxcUgAN7yvv-0" value="" style="ellipse;whiteSpace=wrap;html=1;aspect=fixed;rounded=0;strokeColor=#000000;fontColor=#FFD966;" parent="0m8K6tq2gEUN4jEafZAz-1" vertex="1">
                    <mxGeometry x="57" y="369" width="30" height="30" as="geometry"/>
                </mxCell>
                <mxCell id="J7fMATsGPXxcUgAN7yvv-1" value="" style="ellipse;whiteSpace=wrap;html=1;aspect=fixed;rounded=0;strokeColor=#000000;fontColor=#FFD966;" parent="0m8K6tq2gEUN4jEafZAz-1" vertex="1">
                    <mxGeometry x="157" y="369" width="30" height="30" as="geometry"/>
                </mxCell>
                <mxCell id="J7fMATsGPXxcUgAN7yvv-3" value="&lt;font style=&quot;font-size: 12px&quot;&gt;Business&lt;br&gt;&amp;nbsp;Logic&lt;/font&gt;" style="edgeStyle=none;rounded=0;orthogonalLoop=1;jettySize=auto;html=1;exitX=1;exitY=0.5;exitDx=0;exitDy=0;entryX=0;entryY=0.5;entryDx=0;entryDy=0;strokeWidth=1;fontSize=16;fontColor=#000000;labelPosition=center;verticalLabelPosition=top;align=center;verticalAlign=bottom;" parent="0m8K6tq2gEUN4jEafZAz-1" source="J7fMATsGPXxcUgAN7yvv-0" target="J7fMATsGPXxcUgAN7yvv-1" edge="1">
                    <mxGeometry x="-0.1429" relative="1" as="geometry">
                        <mxPoint as="offset"/>
                    </mxGeometry>
                </mxCell>
                <mxCell id="J7fMATsGPXxcUgAN7yvv-5" value="" style="ellipse;whiteSpace=wrap;html=1;aspect=fixed;rounded=0;strokeColor=#000000;fontColor=#FFD966;" parent="0m8K6tq2gEUN4jEafZAz-1" vertex="1">
                    <mxGeometry x="250" y="369" width="30" height="30" as="geometry"/>
                </mxCell>
                <mxCell id="J7fMATsGPXxcUgAN7yvv-6" value="&lt;font style=&quot;font-size: 12px ; line-height: 120%&quot;&gt;Implement &lt;br&gt;UI &lt;br&gt;&lt;/font&gt;" style="edgeStyle=none;rounded=0;orthogonalLoop=1;jettySize=auto;html=1;exitX=1;exitY=0.5;exitDx=0;exitDy=0;entryX=0;entryY=0.5;entryDx=0;entryDy=0;strokeColor=#000000;strokeWidth=1;fontSize=16;fontColor=#000000;labelPosition=center;verticalLabelPosition=top;align=center;verticalAlign=bottom;" parent="0m8K6tq2gEUN4jEafZAz-1" source="J7fMATsGPXxcUgAN7yvv-1" target="J7fMATsGPXxcUgAN7yvv-5" edge="1">
                    <mxGeometry relative="1" as="geometry"/>
                </mxCell>
                <mxCell id="J7fMATsGPXxcUgAN7yvv-7" value="&lt;font style=&quot;font-size: 12px&quot;&gt;40&lt;/font&gt;" style="edgeLabel;html=1;align=center;verticalAlign=middle;resizable=0;points=[];fontSize=16;fontColor=#000000;" parent="J7fMATsGPXxcUgAN7yvv-6" vertex="1" connectable="0">
                    <mxGeometry x="0.4667" y="-4" relative="1" as="geometry">
                        <mxPoint x="-16" y="7" as="offset"/>
                    </mxGeometry>
                </mxCell>
                <mxCell id="J7fMATsGPXxcUgAN7yvv-8" value="" style="ellipse;whiteSpace=wrap;html=1;aspect=fixed;rounded=0;strokeColor=#000000;fontColor=#FFD966;" parent="0m8K6tq2gEUN4jEafZAz-1" vertex="1">
                    <mxGeometry x="387" y="324" width="30" height="32" as="geometry"/>
                </mxCell>
                <mxCell id="J7fMATsGPXxcUgAN7yvv-9" value="User Testing" style="edgeStyle=none;rounded=0;orthogonalLoop=1;jettySize=auto;html=1;strokeColor=#000000;strokeWidth=1;fontSize=12;fontColor=#000000;labelPosition=center;verticalLabelPosition=top;align=center;verticalAlign=bottom;" parent="0m8K6tq2gEUN4jEafZAz-1" source="J7fMATsGPXxcUgAN7yvv-5" target="J7fMATsGPXxcUgAN7yvv-8" edge="1">
                    <mxGeometry x="0.3007" relative="1" as="geometry">
                        <Array as="points">
                            <mxPoint x="297" y="341"/>
                        </Array>
                        <mxPoint as="offset"/>
                    </mxGeometry>
                </mxCell>
                <mxCell id="J7fMATsGPXxcUgAN7yvv-15" value="Acceptance&lt;br&gt;Testing" style="edgeStyle=none;rounded=0;orthogonalLoop=1;jettySize=auto;html=1;strokeColor=#000000;strokeWidth=1;fontSize=12;fontColor=#000000;labelPosition=center;verticalLabelPosition=top;align=center;verticalAlign=bottom;exitX=1;exitY=1;exitDx=0;exitDy=0;" parent="0m8K6tq2gEUN4jEafZAz-1" source="J7fMATsGPXxcUgAN7yvv-5" target="J7fMATsGPXxcUgAN7yvv-16" edge="1">
                    <mxGeometry x="0.3007" relative="1" as="geometry">
                        <mxPoint x="287" y="399" as="sourcePoint"/>
                        <Array as="points">
                            <mxPoint x="297" y="414"/>
                        </Array>
                        <mxPoint as="offset"/>
                    </mxGeometry>
                </mxCell>
                <mxCell id="J7fMATsGPXxcUgAN7yvv-16" value="" style="ellipse;whiteSpace=wrap;html=1;aspect=fixed;rounded=0;strokeColor=#000000;fontColor=#FFD966;" parent="0m8K6tq2gEUN4jEafZAz-1" vertex="1">
                    <mxGeometry x="387" y="399" width="30" height="30" as="geometry"/>
                </mxCell>
                <mxCell id="J7fMATsGPXxcUgAN7yvv-20" value="Accessibility&lt;br&gt;Testing" style="edgeStyle=none;rounded=0;orthogonalLoop=1;jettySize=auto;html=1;strokeColor=#000000;strokeWidth=1;fontSize=12;fontColor=#000000;labelPosition=center;verticalLabelPosition=top;align=center;verticalAlign=bottom;" parent="0m8K6tq2gEUN4jEafZAz-1" target="J7fMATsGPXxcUgAN7yvv-21" edge="1">
                    <mxGeometry x="0.4182" relative="1" as="geometry">
                        <mxPoint x="267" y="369" as="sourcePoint"/>
                        <Array as="points">
                            <mxPoint x="300.04" y="302.02"/>
                        </Array>
                        <mxPoint as="offset"/>
                    </mxGeometry>
                </mxCell>
                <mxCell id="J7fMATsGPXxcUgAN7yvv-21" value="" style="ellipse;whiteSpace=wrap;html=1;aspect=fixed;rounded=0;strokeColor=#000000;fontColor=#FFD966;" parent="0m8K6tq2gEUN4jEafZAz-1" vertex="1">
                    <mxGeometry x="387.04" y="285.02" width="30" height="32" as="geometry"/>
                </mxCell>
            </root>
        </mxGraphModel>
    </diagram>
    <diagram id="n64qZQ4R1jtDkK015fJW" name="Simulator Split">
        <mxGraphModel dx="1422" dy="746" grid="1" gridSize="10" guides="1" tooltips="1" connect="1" arrows="1" fold="1" page="1" pageScale="1" pageWidth="850" pageHeight="1100" math="0" shadow="0">
            <root>
                <mxCell id="EDQpfz1nYGkkkFkIgkeu-0"/>
                <mxCell id="EDQpfz1nYGkkkFkIgkeu-1" parent="EDQpfz1nYGkkkFkIgkeu-0"/>
                <mxCell id="eE-2oysbm48_6nmq4X4U-0" value="" style="ellipse;whiteSpace=wrap;html=1;aspect=fixed;rounded=0;strokeColor=#000000;fontColor=#FFD966;" parent="EDQpfz1nYGkkkFkIgkeu-1" vertex="1">
                    <mxGeometry x="267" y="369" width="30" height="30" as="geometry"/>
                </mxCell>
                <mxCell id="eE-2oysbm48_6nmq4X4U-1" value="" style="ellipse;whiteSpace=wrap;html=1;aspect=fixed;rounded=0;strokeColor=#000000;fontColor=#FFD966;" parent="EDQpfz1nYGkkkFkIgkeu-1" vertex="1">
                    <mxGeometry x="370" y="369" width="30" height="30" as="geometry"/>
                </mxCell>
                <mxCell id="eE-2oysbm48_6nmq4X4U-2" value="&lt;font style=&quot;font-size: 12px&quot;&gt;Business&lt;br&gt;&amp;nbsp;Logic&lt;/font&gt;" style="edgeStyle=none;rounded=0;orthogonalLoop=1;jettySize=auto;html=1;exitX=1;exitY=0.5;exitDx=0;exitDy=0;entryX=0;entryY=0.5;entryDx=0;entryDy=0;strokeWidth=1;fontSize=16;fontColor=#000000;labelPosition=center;verticalLabelPosition=top;align=center;verticalAlign=bottom;" parent="EDQpfz1nYGkkkFkIgkeu-1" source="eE-2oysbm48_6nmq4X4U-0" target="eE-2oysbm48_6nmq4X4U-1" edge="1">
                    <mxGeometry x="-0.1429" relative="1" as="geometry">
                        <mxPoint as="offset"/>
                    </mxGeometry>
                </mxCell>
                <mxCell id="eE-2oysbm48_6nmq4X4U-12" value="80" style="edgeLabel;html=1;align=center;verticalAlign=middle;resizable=0;points=[];fontSize=12;fontColor=#000000;" parent="eE-2oysbm48_6nmq4X4U-2" vertex="1" connectable="0">
                    <mxGeometry x="-0.1143" y="-10" relative="1" as="geometry">
                        <mxPoint as="offset"/>
                    </mxGeometry>
                </mxCell>
                <mxCell id="eE-2oysbm48_6nmq4X4U-3" value="" style="ellipse;whiteSpace=wrap;html=1;aspect=fixed;rounded=0;strokeColor=#000000;fontColor=#FFD966;" parent="EDQpfz1nYGkkkFkIgkeu-1" vertex="1">
                    <mxGeometry x="500" y="399" width="30" height="30" as="geometry"/>
                </mxCell>
                <mxCell id="eE-2oysbm48_6nmq4X4U-4" value="&lt;font style=&quot;font-size: 12px ; line-height: 120%&quot;&gt;Integrate&lt;br&gt;Logic&lt;br&gt;&lt;/font&gt;" style="edgeStyle=none;rounded=0;orthogonalLoop=1;jettySize=auto;html=1;exitX=1;exitY=1;exitDx=0;exitDy=0;entryX=0;entryY=0.5;entryDx=0;entryDy=0;strokeColor=#000000;strokeWidth=1;fontSize=16;fontColor=#000000;labelPosition=center;verticalLabelPosition=top;align=center;verticalAlign=bottom;" parent="EDQpfz1nYGkkkFkIgkeu-1" source="eE-2oysbm48_6nmq4X4U-1" target="eE-2oysbm48_6nmq4X4U-3" edge="1">
                    <mxGeometry x="0.3209" relative="1" as="geometry">
                        <Array as="points">
                            <mxPoint x="420" y="414"/>
                        </Array>
                        <mxPoint as="offset"/>
                    </mxGeometry>
                </mxCell>
                <mxCell id="eE-2oysbm48_6nmq4X4U-5" value="&lt;font style=&quot;font-size: 12px&quot;&gt;10&lt;/font&gt;" style="edgeLabel;html=1;align=center;verticalAlign=middle;resizable=0;points=[];fontSize=16;fontColor=#000000;" parent="eE-2oysbm48_6nmq4X4U-4" vertex="1" connectable="0">
                    <mxGeometry x="0.4667" y="-4" relative="1" as="geometry">
                        <mxPoint x="-16" y="7" as="offset"/>
                    </mxGeometry>
                </mxCell>
                <mxCell id="eE-2oysbm48_6nmq4X4U-6" value="" style="ellipse;whiteSpace=wrap;html=1;aspect=fixed;rounded=0;strokeColor=#000000;fontColor=#FFD966;" parent="EDQpfz1nYGkkkFkIgkeu-1" vertex="1">
                    <mxGeometry x="510" y="324" width="31" height="32" as="geometry"/>
                </mxCell>
                <mxCell id="eE-2oysbm48_6nmq4X4U-7" value="User Testing" style="edgeStyle=none;rounded=0;orthogonalLoop=1;jettySize=auto;html=1;strokeColor=#000000;strokeWidth=1;fontSize=12;fontColor=#000000;labelPosition=center;verticalLabelPosition=top;align=center;verticalAlign=bottom;exitX=1;exitY=1;exitDx=0;exitDy=0;" parent="EDQpfz1nYGkkkFkIgkeu-1" source="eE-2oysbm48_6nmq4X4U-24" target="eE-2oysbm48_6nmq4X4U-6" edge="1">
                    <mxGeometry x="0.3007" relative="1" as="geometry">
                        <Array as="points">
                            <mxPoint x="430" y="340"/>
                        </Array>
                        <mxPoint as="offset"/>
                    </mxGeometry>
                </mxCell>
                <mxCell id="eE-2oysbm48_6nmq4X4U-8" value="Acceptance&lt;br&gt;Testing" style="edgeStyle=none;rounded=0;orthogonalLoop=1;jettySize=auto;html=1;strokeColor=#000000;strokeWidth=1;fontSize=12;fontColor=#000000;labelPosition=center;verticalLabelPosition=top;align=center;verticalAlign=bottom;exitX=1;exitY=0.5;exitDx=0;exitDy=0;labelBackgroundColor=none;" parent="EDQpfz1nYGkkkFkIgkeu-1" source="eE-2oysbm48_6nmq4X4U-3" target="eE-2oysbm48_6nmq4X4U-9" edge="1">
                    <mxGeometry x="-0.1045" relative="1" as="geometry">
                        <mxPoint x="497" y="399" as="sourcePoint"/>
                        <Array as="points"/>
                        <mxPoint as="offset"/>
                    </mxGeometry>
                </mxCell>
                <mxCell id="eE-2oysbm48_6nmq4X4U-9" value="" style="ellipse;whiteSpace=wrap;html=1;aspect=fixed;rounded=0;strokeColor=#000000;fontColor=#FFD966;" parent="EDQpfz1nYGkkkFkIgkeu-1" vertex="1">
                    <mxGeometry x="597" y="399" width="30" height="30" as="geometry"/>
                </mxCell>
                <mxCell id="eE-2oysbm48_6nmq4X4U-10" value="Accessibility&lt;br&gt;Testing" style="edgeStyle=none;rounded=0;orthogonalLoop=1;jettySize=auto;html=1;strokeColor=#000000;strokeWidth=1;fontSize=12;fontColor=#000000;labelPosition=center;verticalLabelPosition=top;align=center;verticalAlign=bottom;exitX=1;exitY=0.5;exitDx=0;exitDy=0;" parent="EDQpfz1nYGkkkFkIgkeu-1" source="eE-2oysbm48_6nmq4X4U-24" target="eE-2oysbm48_6nmq4X4U-11" edge="1">
                    <mxGeometry x="0.4182" relative="1" as="geometry">
                        <mxPoint x="430" y="340" as="sourcePoint"/>
                        <Array as="points"/>
                        <mxPoint as="offset"/>
                    </mxGeometry>
                </mxCell>
                <mxCell id="eE-2oysbm48_6nmq4X4U-11" value="" style="ellipse;whiteSpace=wrap;html=1;aspect=fixed;rounded=0;strokeColor=#000000;fontColor=#FFD966;" parent="EDQpfz1nYGkkkFkIgkeu-1" vertex="1">
                    <mxGeometry x="510" y="285.02" width="31" height="32" as="geometry"/>
                </mxCell>
                <mxCell id="eE-2oysbm48_6nmq4X4U-17" value="Simulate&lt;br&gt;&amp;nbsp;Logic" style="edgeStyle=none;rounded=0;orthogonalLoop=1;jettySize=auto;html=1;labelBackgroundColor=none;strokeColor=#000000;strokeWidth=1;fontSize=12;fontColor=#000000;labelPosition=center;verticalLabelPosition=top;align=center;verticalAlign=bottom;" parent="EDQpfz1nYGkkkFkIgkeu-1" source="eE-2oysbm48_6nmq4X4U-13" target="eE-2oysbm48_6nmq4X4U-16" edge="1">
                    <mxGeometry relative="1" as="geometry"/>
                </mxCell>
                <mxCell id="eE-2oysbm48_6nmq4X4U-22" value="10" style="edgeLabel;html=1;align=center;verticalAlign=middle;resizable=0;points=[];fontSize=12;fontColor=#000000;" parent="eE-2oysbm48_6nmq4X4U-17" vertex="1" connectable="0">
                    <mxGeometry x="-0.05" y="-10" relative="1" as="geometry">
                        <mxPoint as="offset"/>
                    </mxGeometry>
                </mxCell>
                <mxCell id="eE-2oysbm48_6nmq4X4U-13" value="" style="ellipse;whiteSpace=wrap;html=1;aspect=fixed;rounded=0;strokeColor=#000000;fontColor=#FFD966;" parent="EDQpfz1nYGkkkFkIgkeu-1" vertex="1">
                    <mxGeometry x="236" y="287.02" width="30" height="30" as="geometry"/>
                </mxCell>
                <mxCell id="eE-2oysbm48_6nmq4X4U-19" value="Implement&lt;br&gt;&amp;nbsp;UI" style="edgeStyle=none;rounded=0;orthogonalLoop=1;jettySize=auto;html=1;labelBackgroundColor=none;strokeColor=#000000;strokeWidth=1;fontSize=12;fontColor=#000000;labelPosition=center;verticalLabelPosition=top;align=center;verticalAlign=bottom;entryX=0;entryY=0.5;entryDx=0;entryDy=0;" parent="EDQpfz1nYGkkkFkIgkeu-1" source="eE-2oysbm48_6nmq4X4U-16" target="eE-2oysbm48_6nmq4X4U-24" edge="1">
                    <mxGeometry x="-0.1765" relative="1" as="geometry">
                        <mxPoint x="487" y="302.02" as="targetPoint"/>
                        <Array as="points"/>
                        <mxPoint as="offset"/>
                    </mxGeometry>
                </mxCell>
                <mxCell id="5rmcEF2gIrbe5APA08qK-0" value="40" style="edgeLabel;html=1;align=center;verticalAlign=middle;resizable=0;points=[];fontSize=12;" vertex="1" connectable="0" parent="eE-2oysbm48_6nmq4X4U-19">
                    <mxGeometry x="-0.1765" y="-10" relative="1" as="geometry">
                        <mxPoint x="-1" y="-1" as="offset"/>
                    </mxGeometry>
                </mxCell>
                <mxCell id="eE-2oysbm48_6nmq4X4U-16" value="" style="ellipse;whiteSpace=wrap;html=1;aspect=fixed;rounded=0;strokeColor=#000000;fontColor=#FFD966;" parent="EDQpfz1nYGkkkFkIgkeu-1" vertex="1">
                    <mxGeometry x="306" y="287.02" width="30" height="30" as="geometry"/>
                </mxCell>
                <mxCell id="eE-2oysbm48_6nmq4X4U-27" value="" style="edgeStyle=none;rounded=0;orthogonalLoop=1;jettySize=auto;html=1;labelBackgroundColor=none;strokeColor=#000000;strokeWidth=1;fontSize=12;fontColor=#000000;" parent="EDQpfz1nYGkkkFkIgkeu-1" source="eE-2oysbm48_6nmq4X4U-24" target="eE-2oysbm48_6nmq4X4U-1" edge="1">
                    <mxGeometry relative="1" as="geometry"/>
                </mxCell>
                <mxCell id="eE-2oysbm48_6nmq4X4U-24" value="" style="ellipse;whiteSpace=wrap;html=1;aspect=fixed;rounded=0;strokeColor=#000000;fontColor=#FFD966;" parent="EDQpfz1nYGkkkFkIgkeu-1" vertex="1">
                    <mxGeometry x="370" y="287.02" width="30" height="30" as="geometry"/>
                </mxCell>
            </root>
        </mxGraphModel>
    </diagram>
    <diagram id="SCGFcnqCrS6JYiVf2mtI" name="Internal split">
        <mxGraphModel dx="1422" dy="746" grid="1" gridSize="10" guides="1" tooltips="1" connect="1" arrows="1" fold="1" page="1" pageScale="1" pageWidth="850" pageHeight="1100" math="0" shadow="0">
            <root>
                <mxCell id="JbZ7aHTApuSKh9n6DE_E-0"/>
                <mxCell id="JbZ7aHTApuSKh9n6DE_E-1" parent="JbZ7aHTApuSKh9n6DE_E-0"/>
                <mxCell id="JbZ7aHTApuSKh9n6DE_E-2" value="" style="ellipse;whiteSpace=wrap;html=1;aspect=fixed;rounded=0;strokeColor=#000000;fontColor=#FFD966;" parent="JbZ7aHTApuSKh9n6DE_E-1" vertex="1">
                    <mxGeometry x="217" y="396" width="30" height="30" as="geometry"/>
                </mxCell>
                <mxCell id="JbZ7aHTApuSKh9n6DE_E-3" value="" style="ellipse;whiteSpace=wrap;html=1;aspect=fixed;rounded=0;strokeColor=#000000;fontColor=#FFD966;" parent="JbZ7aHTApuSKh9n6DE_E-1" vertex="1">
                    <mxGeometry x="317" y="396" width="30" height="30" as="geometry"/>
                </mxCell>
                <mxCell id="JbZ7aHTApuSKh9n6DE_E-4" value="&lt;font style=&quot;font-size: 12px ; line-height: 100%&quot;&gt;Business&lt;br&gt;Logic&lt;/font&gt;" style="edgeStyle=none;rounded=0;orthogonalLoop=1;jettySize=auto;html=1;strokeWidth=1;fontSize=16;fontColor=#000000;labelPosition=center;verticalLabelPosition=top;align=center;verticalAlign=bottom;exitX=1;exitY=0.5;exitDx=0;exitDy=0;entryX=0;entryY=0.5;entryDx=0;entryDy=0;" parent="JbZ7aHTApuSKh9n6DE_E-1" source="JbZ7aHTApuSKh9n6DE_E-2" target="JbZ7aHTApuSKh9n6DE_E-3" edge="1">
                    <mxGeometry x="-0.1429" relative="1" as="geometry">
                        <mxPoint as="offset"/>
                        <mxPoint x="260" y="411" as="sourcePoint"/>
                        <mxPoint x="280" y="411" as="targetPoint"/>
                    </mxGeometry>
                </mxCell>
                <mxCell id="JbZ7aHTApuSKh9n6DE_E-5" value="" style="edgeStyle=none;rounded=0;orthogonalLoop=1;jettySize=auto;html=1;exitX=0.5;exitY=1;exitDx=0;exitDy=0;entryX=0.5;entryY=0;entryDx=0;entryDy=0;strokeWidth=1;fontSize=16;fontColor=#000000;labelPosition=center;verticalLabelPosition=top;align=center;verticalAlign=bottom;" parent="JbZ7aHTApuSKh9n6DE_E-1" source="JbZ7aHTApuSKh9n6DE_E-7" target="JbZ7aHTApuSKh9n6DE_E-3" edge="1">
                    <mxGeometry x="0.1132" y="2" relative="1" as="geometry">
                        <Array as="points"/>
                        <mxPoint as="offset"/>
                    </mxGeometry>
                </mxCell>
                <mxCell id="JbZ7aHTApuSKh9n6DE_E-6" value="Design Handoff" style="edgeLabel;html=1;align=center;verticalAlign=middle;resizable=0;points=[];fontSize=12;fontColor=#000000;" parent="JbZ7aHTApuSKh9n6DE_E-5" vertex="1" connectable="0">
                    <mxGeometry x="-0.5111" y="3" relative="1" as="geometry">
                        <mxPoint as="offset"/>
                    </mxGeometry>
                </mxCell>
                <mxCell id="JbZ7aHTApuSKh9n6DE_E-7" value="" style="ellipse;whiteSpace=wrap;html=1;aspect=fixed;rounded=0;strokeColor=#000000;fontColor=#FFD966;" parent="JbZ7aHTApuSKh9n6DE_E-1" vertex="1">
                    <mxGeometry x="317" y="321" width="30" height="30" as="geometry"/>
                </mxCell>
                <mxCell id="JbZ7aHTApuSKh9n6DE_E-8" value="" style="ellipse;whiteSpace=wrap;html=1;aspect=fixed;rounded=0;strokeColor=#000000;fontColor=#FFD966;" parent="JbZ7aHTApuSKh9n6DE_E-1" vertex="1">
                    <mxGeometry x="410" y="396" width="30" height="30" as="geometry"/>
                </mxCell>
                <mxCell id="JbZ7aHTApuSKh9n6DE_E-9" value="&lt;font style=&quot;font-size: 12px ; line-height: 120%&quot;&gt;Implement &lt;br&gt;UI &lt;br&gt;&lt;/font&gt;" style="edgeStyle=none;rounded=0;orthogonalLoop=1;jettySize=auto;html=1;exitX=1;exitY=0.5;exitDx=0;exitDy=0;entryX=0;entryY=0.5;entryDx=0;entryDy=0;strokeColor=#000000;strokeWidth=1;fontSize=16;fontColor=#000000;labelPosition=center;verticalLabelPosition=top;align=center;verticalAlign=bottom;" parent="JbZ7aHTApuSKh9n6DE_E-1" source="JbZ7aHTApuSKh9n6DE_E-3" target="JbZ7aHTApuSKh9n6DE_E-8" edge="1">
                    <mxGeometry relative="1" as="geometry"/>
                </mxCell>
                <mxCell id="JbZ7aHTApuSKh9n6DE_E-10" value="&lt;font style=&quot;font-size: 12px&quot;&gt;20&lt;/font&gt;" style="edgeLabel;html=1;align=center;verticalAlign=middle;resizable=0;points=[];fontSize=16;fontColor=#000000;" parent="JbZ7aHTApuSKh9n6DE_E-9" vertex="1" connectable="0">
                    <mxGeometry x="0.4667" y="-4" relative="1" as="geometry">
                        <mxPoint x="-16" y="7" as="offset"/>
                    </mxGeometry>
                </mxCell>
                <mxCell id="JbZ7aHTApuSKh9n6DE_E-11" value="" style="ellipse;whiteSpace=wrap;html=1;aspect=fixed;rounded=0;strokeColor=#000000;fontColor=#FFD966;" parent="JbZ7aHTApuSKh9n6DE_E-1" vertex="1">
                    <mxGeometry x="510" y="324" width="30" height="32" as="geometry"/>
                </mxCell>
                <mxCell id="JbZ7aHTApuSKh9n6DE_E-12" value="User Testing" style="edgeStyle=none;rounded=0;orthogonalLoop=1;jettySize=auto;html=1;strokeColor=#000000;strokeWidth=1;fontSize=12;fontColor=#000000;labelPosition=center;verticalLabelPosition=top;align=center;verticalAlign=bottom;exitX=0.5;exitY=0;exitDx=0;exitDy=0;" parent="JbZ7aHTApuSKh9n6DE_E-1" source="JbZ7aHTApuSKh9n6DE_E-8" target="JbZ7aHTApuSKh9n6DE_E-11" edge="1">
                    <mxGeometry x="0.3749" relative="1" as="geometry">
                        <Array as="points">
                            <mxPoint x="440" y="340"/>
                        </Array>
                        <mxPoint as="offset"/>
                        <mxPoint x="390" y="340" as="sourcePoint"/>
                    </mxGeometry>
                </mxCell>
                <mxCell id="JbZ7aHTApuSKh9n6DE_E-13" value="Acceptance&lt;br&gt;Testing" style="edgeStyle=none;rounded=0;orthogonalLoop=1;jettySize=auto;html=1;strokeColor=#000000;strokeWidth=1;fontSize=12;fontColor=#000000;labelPosition=center;verticalLabelPosition=top;align=center;verticalAlign=bottom;exitX=1;exitY=0.5;exitDx=0;exitDy=0;labelBackgroundColor=none;" parent="JbZ7aHTApuSKh9n6DE_E-1" source="JbZ7aHTApuSKh9n6DE_E-8" target="JbZ7aHTApuSKh9n6DE_E-14" edge="1">
                    <mxGeometry x="-0.1429" relative="1" as="geometry">
                        <mxPoint x="447" y="426" as="sourcePoint"/>
                        <Array as="points"/>
                        <mxPoint as="offset"/>
                    </mxGeometry>
                </mxCell>
                <mxCell id="JbZ7aHTApuSKh9n6DE_E-14" value="" style="ellipse;whiteSpace=wrap;html=1;aspect=fixed;rounded=0;strokeColor=#000000;fontColor=#FFD966;" parent="JbZ7aHTApuSKh9n6DE_E-1" vertex="1">
                    <mxGeometry x="510" y="396" width="30" height="30" as="geometry"/>
                </mxCell>
                <mxCell id="JbZ7aHTApuSKh9n6DE_E-15" value="Accessibility&lt;br&gt;Testing" style="edgeStyle=none;rounded=0;orthogonalLoop=1;jettySize=auto;html=1;strokeColor=#000000;strokeWidth=1;fontSize=12;fontColor=#000000;labelPosition=center;verticalLabelPosition=top;align=center;verticalAlign=bottom;exitX=1;exitY=0.5;exitDx=0;exitDy=0;labelBackgroundColor=none;" parent="JbZ7aHTApuSKh9n6DE_E-1" source="JbZ7aHTApuSKh9n6DE_E-7" target="JbZ7aHTApuSKh9n6DE_E-16" edge="1">
                    <mxGeometry x="0.4701" relative="1" as="geometry">
                        <mxPoint x="527" y="396" as="sourcePoint"/>
                        <Array as="points">
                            <mxPoint x="370" y="288"/>
                        </Array>
                        <mxPoint as="offset"/>
                    </mxGeometry>
                </mxCell>
                <mxCell id="JbZ7aHTApuSKh9n6DE_E-16" value="" style="ellipse;whiteSpace=wrap;html=1;aspect=fixed;rounded=0;strokeColor=#000000;fontColor=#FFD966;" parent="JbZ7aHTApuSKh9n6DE_E-1" vertex="1">
                    <mxGeometry x="430" y="271" width="30" height="32" as="geometry"/>
                </mxCell>
                <mxCell id="JbZ7aHTApuSKh9n6DE_E-17" value="Design UI" style="edgeStyle=none;rounded=0;orthogonalLoop=1;jettySize=auto;html=1;labelBackgroundColor=none;strokeColor=#000000;strokeWidth=1;fontSize=12;fontColor=#000000;labelPosition=center;verticalLabelPosition=top;align=center;verticalAlign=bottom;" parent="JbZ7aHTApuSKh9n6DE_E-1" source="JbZ7aHTApuSKh9n6DE_E-19" target="JbZ7aHTApuSKh9n6DE_E-7" edge="1">
                    <mxGeometry relative="1" as="geometry"/>
                </mxCell>
                <mxCell id="JbZ7aHTApuSKh9n6DE_E-18" value="20" style="edgeLabel;html=1;align=center;verticalAlign=middle;resizable=0;points=[];fontSize=12;fontColor=#000000;" parent="JbZ7aHTApuSKh9n6DE_E-17" vertex="1" connectable="0">
                    <mxGeometry x="-0.4" y="-3" relative="1" as="geometry">
                        <mxPoint x="12" y="6" as="offset"/>
                    </mxGeometry>
                </mxCell>
                <mxCell id="JbZ7aHTApuSKh9n6DE_E-19" value="" style="ellipse;whiteSpace=wrap;html=1;aspect=fixed;rounded=0;strokeColor=#000000;fontColor=#FFD966;" parent="JbZ7aHTApuSKh9n6DE_E-1" vertex="1">
                    <mxGeometry x="217" y="321" width="30" height="30" as="geometry"/>
                </mxCell>
            </root>
        </mxGraphModel>
    </diagram>
    <diagram id="L6C6WundoX7YIZislJBZ" name="Network-Complex">
        <mxGraphModel dx="1422" dy="746" grid="1" gridSize="10" guides="1" tooltips="1" connect="1" arrows="1" fold="1" page="1" pageScale="1" pageWidth="850" pageHeight="1100" math="0" shadow="0">
            <root>
                <mxCell id="yykLAmy9DIz5Wa7Io00R-0"/>
                <mxCell id="yykLAmy9DIz5Wa7Io00R-1" parent="yykLAmy9DIz5Wa7Io00R-0"/>
                <mxCell id="oYuDieMKa21tcA2QOq-Y-14" style="rounded=0;orthogonalLoop=1;jettySize=auto;html=1;exitX=1;exitY=1;exitDx=0;exitDy=0;entryX=0;entryY=0.5;entryDx=0;entryDy=0;fontSize=12;" edge="1" parent="yykLAmy9DIz5Wa7Io00R-1" source="oYuDieMKa21tcA2QOq-Y-0" target="oYuDieMKa21tcA2QOq-Y-12">
                    <mxGeometry relative="1" as="geometry"/>
                </mxCell>
                <mxCell id="oYuDieMKa21tcA2QOq-Y-16" value="" style="edgeStyle=none;rounded=0;orthogonalLoop=1;jettySize=auto;html=1;fontSize=12;" edge="1" parent="yykLAmy9DIz5Wa7Io00R-1" source="oYuDieMKa21tcA2QOq-Y-0" target="oYuDieMKa21tcA2QOq-Y-15">
                    <mxGeometry relative="1" as="geometry"/>
                </mxCell>
                <mxCell id="oYuDieMKa21tcA2QOq-Y-0" value="" style="ellipse;whiteSpace=wrap;html=1;aspect=fixed;rounded=0;strokeColor=#000000;fontColor=#FFD966;" vertex="1" parent="yykLAmy9DIz5Wa7Io00R-1">
                    <mxGeometry x="297" y="369" width="30" height="30" as="geometry"/>
                </mxCell>
                <mxCell id="oYuDieMKa21tcA2QOq-Y-25" style="edgeStyle=none;rounded=0;orthogonalLoop=1;jettySize=auto;html=1;exitX=1;exitY=0;exitDx=0;exitDy=0;entryX=0;entryY=1;entryDx=0;entryDy=0;fontSize=12;" edge="1" parent="yykLAmy9DIz5Wa7Io00R-1" source="oYuDieMKa21tcA2QOq-Y-23" target="oYuDieMKa21tcA2QOq-Y-17">
                    <mxGeometry relative="1" as="geometry"/>
                </mxCell>
                <mxCell id="oYuDieMKa21tcA2QOq-Y-26" style="edgeStyle=none;rounded=0;orthogonalLoop=1;jettySize=auto;html=1;exitX=1;exitY=0;exitDx=0;exitDy=0;entryX=0;entryY=1;entryDx=0;entryDy=0;fontSize=12;" edge="1" parent="yykLAmy9DIz5Wa7Io00R-1" source="oYuDieMKa21tcA2QOq-Y-23" target="oYuDieMKa21tcA2QOq-Y-1">
                    <mxGeometry relative="1" as="geometry"/>
                </mxCell>
                <mxCell id="oYuDieMKa21tcA2QOq-Y-27" style="edgeStyle=none;rounded=0;orthogonalLoop=1;jettySize=auto;html=1;exitX=1;exitY=0.5;exitDx=0;exitDy=0;entryX=0;entryY=0.5;entryDx=0;entryDy=0;fontSize=12;" edge="1" parent="yykLAmy9DIz5Wa7Io00R-1" source="oYuDieMKa21tcA2QOq-Y-23" target="oYuDieMKa21tcA2QOq-Y-12">
                    <mxGeometry relative="1" as="geometry"/>
                </mxCell>
                <mxCell id="oYuDieMKa21tcA2QOq-Y-23" value="" style="ellipse;whiteSpace=wrap;html=1;aspect=fixed;rounded=0;strokeColor=#000000;fontColor=#FFD966;" vertex="1" parent="yykLAmy9DIz5Wa7Io00R-1">
                    <mxGeometry x="297" y="420" width="30" height="30" as="geometry"/>
                </mxCell>
                <mxCell id="oYuDieMKa21tcA2QOq-Y-18" value="" style="edgeStyle=none;rounded=0;orthogonalLoop=1;jettySize=auto;html=1;fontSize=12;" edge="1" parent="yykLAmy9DIz5Wa7Io00R-1" source="oYuDieMKa21tcA2QOq-Y-15" target="oYuDieMKa21tcA2QOq-Y-17">
                    <mxGeometry relative="1" as="geometry"/>
                </mxCell>
                <mxCell id="oYuDieMKa21tcA2QOq-Y-20" style="edgeStyle=none;rounded=0;orthogonalLoop=1;jettySize=auto;html=1;exitX=1;exitY=1;exitDx=0;exitDy=0;fontSize=12;" edge="1" parent="yykLAmy9DIz5Wa7Io00R-1" source="oYuDieMKa21tcA2QOq-Y-15" target="oYuDieMKa21tcA2QOq-Y-1">
                    <mxGeometry relative="1" as="geometry"/>
                </mxCell>
                <mxCell id="oYuDieMKa21tcA2QOq-Y-15" value="" style="ellipse;whiteSpace=wrap;html=1;aspect=fixed;rounded=0;strokeColor=#000000;fontColor=#FFD966;" vertex="1" parent="yykLAmy9DIz5Wa7Io00R-1">
                    <mxGeometry x="310" y="310" width="30" height="30" as="geometry"/>
                </mxCell>
                <mxCell id="oYuDieMKa21tcA2QOq-Y-28" style="edgeStyle=none;rounded=0;orthogonalLoop=1;jettySize=auto;html=1;exitX=1;exitY=1;exitDx=0;exitDy=0;entryX=0;entryY=0;entryDx=0;entryDy=0;fontSize=12;" edge="1" parent="yykLAmy9DIz5Wa7Io00R-1" source="oYuDieMKa21tcA2QOq-Y-17" target="oYuDieMKa21tcA2QOq-Y-21">
                    <mxGeometry relative="1" as="geometry"/>
                </mxCell>
                <mxCell id="oYuDieMKa21tcA2QOq-Y-17" value="" style="ellipse;whiteSpace=wrap;html=1;aspect=fixed;rounded=0;strokeColor=#000000;fontColor=#FFD966;" vertex="1" parent="yykLAmy9DIz5Wa7Io00R-1">
                    <mxGeometry x="390" y="300" width="30" height="30" as="geometry"/>
                </mxCell>
                <mxCell id="oYuDieMKa21tcA2QOq-Y-13" value="" style="edgeStyle=orthogonalEdgeStyle;rounded=0;orthogonalLoop=1;jettySize=auto;html=1;fontSize=12;" edge="1" parent="yykLAmy9DIz5Wa7Io00R-1" source="oYuDieMKa21tcA2QOq-Y-1" target="oYuDieMKa21tcA2QOq-Y-12">
                    <mxGeometry relative="1" as="geometry"/>
                </mxCell>
                <mxCell id="oYuDieMKa21tcA2QOq-Y-1" value="" style="ellipse;whiteSpace=wrap;html=1;aspect=fixed;rounded=0;strokeColor=#000000;fontColor=#FFD966;" vertex="1" parent="yykLAmy9DIz5Wa7Io00R-1">
                    <mxGeometry x="397" y="369" width="30" height="30" as="geometry"/>
                </mxCell>
                <mxCell id="oYuDieMKa21tcA2QOq-Y-30" value="" style="edgeStyle=none;rounded=0;orthogonalLoop=1;jettySize=auto;html=1;fontSize=12;" edge="1" parent="yykLAmy9DIz5Wa7Io00R-1" source="oYuDieMKa21tcA2QOq-Y-12" target="oYuDieMKa21tcA2QOq-Y-29">
                    <mxGeometry relative="1" as="geometry"/>
                </mxCell>
                <mxCell id="oYuDieMKa21tcA2QOq-Y-31" style="edgeStyle=none;rounded=0;orthogonalLoop=1;jettySize=auto;html=1;exitX=1;exitY=0;exitDx=0;exitDy=0;entryX=0;entryY=1;entryDx=0;entryDy=0;fontSize=12;" edge="1" parent="yykLAmy9DIz5Wa7Io00R-1" source="oYuDieMKa21tcA2QOq-Y-12" target="oYuDieMKa21tcA2QOq-Y-21">
                    <mxGeometry relative="1" as="geometry"/>
                </mxCell>
                <mxCell id="oYuDieMKa21tcA2QOq-Y-12" value="" style="ellipse;whiteSpace=wrap;html=1;aspect=fixed;rounded=0;strokeColor=#000000;fontColor=#FFD966;" vertex="1" parent="yykLAmy9DIz5Wa7Io00R-1">
                    <mxGeometry x="397" y="420" width="30" height="30" as="geometry"/>
                </mxCell>
                <mxCell id="oYuDieMKa21tcA2QOq-Y-29" value="" style="ellipse;whiteSpace=wrap;html=1;aspect=fixed;rounded=0;strokeColor=#000000;fontColor=#FFD966;" vertex="1" parent="yykLAmy9DIz5Wa7Io00R-1">
                    <mxGeometry x="470" y="420" width="30" height="30" as="geometry"/>
                </mxCell>
                <mxCell id="oYuDieMKa21tcA2QOq-Y-2" value="" style="edgeStyle=none;rounded=0;orthogonalLoop=1;jettySize=auto;html=1;exitX=1;exitY=0.5;exitDx=0;exitDy=0;entryX=0;entryY=0.5;entryDx=0;entryDy=0;strokeWidth=1;fontSize=16;fontColor=#000000;labelPosition=center;verticalLabelPosition=top;align=center;verticalAlign=bottom;" edge="1" parent="yykLAmy9DIz5Wa7Io00R-1" source="oYuDieMKa21tcA2QOq-Y-0" target="oYuDieMKa21tcA2QOq-Y-1">
                    <mxGeometry x="-0.1429" relative="1" as="geometry">
                        <mxPoint as="offset"/>
                    </mxGeometry>
                </mxCell>
                <mxCell id="oYuDieMKa21tcA2QOq-Y-4" value="&lt;font style=&quot;font-size: 12px ; line-height: 120%&quot;&gt;&lt;br&gt;&lt;/font&gt;" style="edgeStyle=none;rounded=0;orthogonalLoop=1;jettySize=auto;html=1;exitX=1;exitY=0.5;exitDx=0;exitDy=0;entryX=0;entryY=0.5;entryDx=0;entryDy=0;strokeColor=#000000;strokeWidth=1;fontSize=16;fontColor=#000000;labelPosition=center;verticalLabelPosition=top;align=center;verticalAlign=bottom;" edge="1" parent="yykLAmy9DIz5Wa7Io00R-1" source="oYuDieMKa21tcA2QOq-Y-1" target="oYuDieMKa21tcA2QOq-Y-21">
                    <mxGeometry relative="1" as="geometry">
                        <mxPoint x="490" y="384" as="targetPoint"/>
                    </mxGeometry>
                </mxCell>
                <mxCell id="oYuDieMKa21tcA2QOq-Y-21" value="" style="ellipse;whiteSpace=wrap;html=1;aspect=fixed;rounded=0;strokeColor=#000000;fontColor=#FFD966;" vertex="1" parent="yykLAmy9DIz5Wa7Io00R-1">
                    <mxGeometry x="470" y="369" width="30" height="30" as="geometry"/>
                </mxCell>
            </root>
        </mxGraphModel>
    </diagram>
    <diagram id="q5vIOvDKVNFEpboP8Hz5" name="Simple">
        <mxGraphModel dx="1422" dy="794" grid="1" gridSize="10" guides="1" tooltips="1" connect="1" arrows="1" fold="1" page="1" pageScale="1" pageWidth="850" pageHeight="1100" math="0" shadow="0">
            <root>
                <mxCell id="OJ2fhvnfZBuIteFUXgVQ-0"/>
                <mxCell id="OJ2fhvnfZBuIteFUXgVQ-1" parent="OJ2fhvnfZBuIteFUXgVQ-0"/>
                <mxCell id="BpxFps8G9ckR27BkVAe8-1" value="" style="edgeStyle=none;rounded=0;orthogonalLoop=1;jettySize=auto;html=1;fontSize=12;" edge="1" parent="OJ2fhvnfZBuIteFUXgVQ-1" source="BpxFps8G9ckR27BkVAe8-2" target="BpxFps8G9ckR27BkVAe8-9">
                    <mxGeometry relative="1" as="geometry"/>
                </mxCell>
                <mxCell id="BpxFps8G9ckR27BkVAe8-2" value="" style="ellipse;whiteSpace=wrap;html=1;aspect=fixed;rounded=0;strokeColor=#000000;fontColor=#FFD966;" vertex="1" parent="OJ2fhvnfZBuIteFUXgVQ-1">
                    <mxGeometry x="297" y="369" width="30" height="30" as="geometry"/>
                </mxCell>
                <mxCell id="BpxFps8G9ckR27BkVAe8-5" style="edgeStyle=none;rounded=0;orthogonalLoop=1;jettySize=auto;html=1;exitX=1;exitY=0.5;exitDx=0;exitDy=0;entryX=0;entryY=0.5;entryDx=0;entryDy=0;fontSize=12;" edge="1" parent="OJ2fhvnfZBuIteFUXgVQ-1" source="BpxFps8G9ckR27BkVAe8-6" target="BpxFps8G9ckR27BkVAe8-16">
                    <mxGeometry relative="1" as="geometry"/>
                </mxCell>
                <mxCell id="BpxFps8G9ckR27BkVAe8-6" value="" style="ellipse;whiteSpace=wrap;html=1;aspect=fixed;rounded=0;strokeColor=#000000;fontColor=#FFD966;" vertex="1" parent="OJ2fhvnfZBuIteFUXgVQ-1">
                    <mxGeometry x="297" y="420" width="30" height="30" as="geometry"/>
                </mxCell>
                <mxCell id="BpxFps8G9ckR27BkVAe8-7" value="" style="edgeStyle=none;rounded=0;orthogonalLoop=1;jettySize=auto;html=1;fontSize=12;" edge="1" parent="OJ2fhvnfZBuIteFUXgVQ-1" source="BpxFps8G9ckR27BkVAe8-9" target="BpxFps8G9ckR27BkVAe8-11">
                    <mxGeometry relative="1" as="geometry"/>
                </mxCell>
                <mxCell id="BpxFps8G9ckR27BkVAe8-9" value="" style="ellipse;whiteSpace=wrap;html=1;aspect=fixed;rounded=0;strokeColor=#000000;fontColor=#FFD966;" vertex="1" parent="OJ2fhvnfZBuIteFUXgVQ-1">
                    <mxGeometry x="310" y="310" width="30" height="30" as="geometry"/>
                </mxCell>
                <mxCell id="BpxFps8G9ckR27BkVAe8-10" style="edgeStyle=none;rounded=0;orthogonalLoop=1;jettySize=auto;html=1;exitX=1;exitY=1;exitDx=0;exitDy=0;fontSize=12;entryX=0;entryY=0;entryDx=0;entryDy=0;" edge="1" parent="OJ2fhvnfZBuIteFUXgVQ-1" source="BpxFps8G9ckR27BkVAe8-11" target="BpxFps8G9ckR27BkVAe8-21">
                    <mxGeometry relative="1" as="geometry">
                        <mxPoint x="430" y="340" as="targetPoint"/>
                    </mxGeometry>
                </mxCell>
                <mxCell id="BpxFps8G9ckR27BkVAe8-11" value="" style="ellipse;whiteSpace=wrap;html=1;aspect=fixed;rounded=0;strokeColor=#000000;fontColor=#FFD966;" vertex="1" parent="OJ2fhvnfZBuIteFUXgVQ-1">
                    <mxGeometry x="390" y="300" width="30" height="30" as="geometry"/>
                </mxCell>
                <mxCell id="BpxFps8G9ckR27BkVAe8-13" value="" style="ellipse;whiteSpace=wrap;html=1;aspect=fixed;rounded=0;strokeColor=#000000;fontColor=#FFD966;" vertex="1" parent="OJ2fhvnfZBuIteFUXgVQ-1">
                    <mxGeometry x="397" y="369" width="30" height="30" as="geometry"/>
                </mxCell>
                <mxCell id="BpxFps8G9ckR27BkVAe8-14" value="" style="edgeStyle=none;rounded=0;orthogonalLoop=1;jettySize=auto;html=1;fontSize=12;" edge="1" parent="OJ2fhvnfZBuIteFUXgVQ-1" source="BpxFps8G9ckR27BkVAe8-16" target="BpxFps8G9ckR27BkVAe8-17">
                    <mxGeometry relative="1" as="geometry"/>
                </mxCell>
                <mxCell id="BpxFps8G9ckR27BkVAe8-25" value="" style="edgeStyle=none;rounded=0;orthogonalLoop=1;jettySize=auto;html=1;fontSize=12;" edge="1" parent="OJ2fhvnfZBuIteFUXgVQ-1" source="BpxFps8G9ckR27BkVAe8-16" target="BpxFps8G9ckR27BkVAe8-24">
                    <mxGeometry relative="1" as="geometry"/>
                </mxCell>
                <mxCell id="Gfirm-42Ta8hxnz-GSP6-0" style="edgeStyle=none;rounded=0;orthogonalLoop=1;jettySize=auto;html=1;exitX=0.5;exitY=0;exitDx=0;exitDy=0;entryX=0.5;entryY=1;entryDx=0;entryDy=0;fontSize=12;" edge="1" parent="OJ2fhvnfZBuIteFUXgVQ-1" source="BpxFps8G9ckR27BkVAe8-16" target="BpxFps8G9ckR27BkVAe8-13">
                    <mxGeometry relative="1" as="geometry"/>
                </mxCell>
                <mxCell id="BpxFps8G9ckR27BkVAe8-16" value="" style="ellipse;whiteSpace=wrap;html=1;aspect=fixed;rounded=0;strokeColor=#000000;fontColor=#FFD966;" vertex="1" parent="OJ2fhvnfZBuIteFUXgVQ-1">
                    <mxGeometry x="397" y="420" width="30" height="30" as="geometry"/>
                </mxCell>
                <mxCell id="BpxFps8G9ckR27BkVAe8-27" value="" style="edgeStyle=none;rounded=0;orthogonalLoop=1;jettySize=auto;html=1;fontSize=12;" edge="1" parent="OJ2fhvnfZBuIteFUXgVQ-1" source="BpxFps8G9ckR27BkVAe8-24" target="BpxFps8G9ckR27BkVAe8-26">
                    <mxGeometry relative="1" as="geometry"/>
                </mxCell>
                <mxCell id="BpxFps8G9ckR27BkVAe8-24" value="" style="ellipse;whiteSpace=wrap;html=1;aspect=fixed;rounded=0;strokeColor=#000000;fontColor=#FFD966;" vertex="1" parent="OJ2fhvnfZBuIteFUXgVQ-1">
                    <mxGeometry x="397" y="468" width="30" height="30" as="geometry"/>
                </mxCell>
                <mxCell id="BpxFps8G9ckR27BkVAe8-31" style="edgeStyle=none;rounded=0;orthogonalLoop=1;jettySize=auto;html=1;exitX=1;exitY=0.5;exitDx=0;exitDy=0;entryX=0;entryY=0.5;entryDx=0;entryDy=0;fontSize=12;" edge="1" parent="OJ2fhvnfZBuIteFUXgVQ-1" source="BpxFps8G9ckR27BkVAe8-28" target="BpxFps8G9ckR27BkVAe8-24">
                    <mxGeometry relative="1" as="geometry"/>
                </mxCell>
                <mxCell id="BpxFps8G9ckR27BkVAe8-28" value="" style="ellipse;whiteSpace=wrap;html=1;aspect=fixed;rounded=0;strokeColor=#000000;fontColor=#FFD966;" vertex="1" parent="OJ2fhvnfZBuIteFUXgVQ-1">
                    <mxGeometry x="320" y="468" width="30" height="30" as="geometry"/>
                </mxCell>
                <mxCell id="BpxFps8G9ckR27BkVAe8-26" value="" style="ellipse;whiteSpace=wrap;html=1;aspect=fixed;rounded=0;strokeColor=#000000;fontColor=#FFD966;" vertex="1" parent="OJ2fhvnfZBuIteFUXgVQ-1">
                    <mxGeometry x="470" y="468" width="30" height="30" as="geometry"/>
                </mxCell>
                <mxCell id="BpxFps8G9ckR27BkVAe8-17" value="" style="ellipse;whiteSpace=wrap;html=1;aspect=fixed;rounded=0;strokeColor=#000000;fontColor=#FFD966;" vertex="1" parent="OJ2fhvnfZBuIteFUXgVQ-1">
                    <mxGeometry x="470" y="420" width="30" height="30" as="geometry"/>
                </mxCell>
                <mxCell id="BpxFps8G9ckR27BkVAe8-18" value="" style="edgeStyle=none;rounded=0;orthogonalLoop=1;jettySize=auto;html=1;exitX=1;exitY=0.5;exitDx=0;exitDy=0;entryX=0;entryY=0.5;entryDx=0;entryDy=0;strokeWidth=1;fontSize=16;fontColor=#000000;labelPosition=center;verticalLabelPosition=top;align=center;verticalAlign=bottom;" edge="1" parent="OJ2fhvnfZBuIteFUXgVQ-1" source="BpxFps8G9ckR27BkVAe8-2" target="BpxFps8G9ckR27BkVAe8-13">
                    <mxGeometry x="-0.1429" relative="1" as="geometry">
                        <mxPoint as="offset"/>
                    </mxGeometry>
                </mxCell>
                <mxCell id="BpxFps8G9ckR27BkVAe8-19" value="&lt;font style=&quot;font-size: 12px ; line-height: 120%&quot;&gt;&lt;br&gt;&lt;/font&gt;" style="edgeStyle=none;rounded=0;orthogonalLoop=1;jettySize=auto;html=1;exitX=1;exitY=0.5;exitDx=0;exitDy=0;entryX=0;entryY=0.5;entryDx=0;entryDy=0;strokeColor=#000000;strokeWidth=1;fontSize=16;fontColor=#000000;labelPosition=center;verticalLabelPosition=top;align=center;verticalAlign=bottom;" edge="1" parent="OJ2fhvnfZBuIteFUXgVQ-1" source="BpxFps8G9ckR27BkVAe8-13" target="BpxFps8G9ckR27BkVAe8-20">
                    <mxGeometry relative="1" as="geometry">
                        <mxPoint x="490" y="384" as="targetPoint"/>
                    </mxGeometry>
                </mxCell>
                <mxCell id="BpxFps8G9ckR27BkVAe8-20" value="" style="ellipse;whiteSpace=wrap;html=1;aspect=fixed;rounded=0;strokeColor=#000000;fontColor=#FFD966;" vertex="1" parent="OJ2fhvnfZBuIteFUXgVQ-1">
                    <mxGeometry x="470" y="369" width="30" height="30" as="geometry"/>
                </mxCell>
                <mxCell id="BpxFps8G9ckR27BkVAe8-23" style="edgeStyle=none;rounded=0;orthogonalLoop=1;jettySize=auto;html=1;exitX=1;exitY=1;exitDx=0;exitDy=0;entryX=0;entryY=0;entryDx=0;entryDy=0;fontSize=12;" edge="1" parent="OJ2fhvnfZBuIteFUXgVQ-1" source="BpxFps8G9ckR27BkVAe8-21" target="BpxFps8G9ckR27BkVAe8-20">
                    <mxGeometry relative="1" as="geometry"/>
                </mxCell>
                <mxCell id="BpxFps8G9ckR27BkVAe8-21" value="" style="ellipse;whiteSpace=wrap;html=1;aspect=fixed;rounded=0;strokeColor=#000000;fontColor=#FFD966;" vertex="1" parent="OJ2fhvnfZBuIteFUXgVQ-1">
                    <mxGeometry x="427" y="330" width="30" height="30" as="geometry"/>
                </mxCell>
            </root>
        </mxGraphModel>
    </diagram>
</mxfile>